<svg height="512pt" viewBox="0 -19 512 511" width="512pt" xmlns="http://www.w3.org/2000/svg"><path d="m291.558594 115.414062c-.648438 0-1.308594-.066406-1.949219-.195312-.640625-.132812-1.269531-.320312-1.871094-.570312-.609375-.25-1.1875-.5625-1.726562-.921876-.550781-.359374-1.0625-.78125-1.523438-1.238281-.457031-.472656-.878906-.980469-1.238281-1.53125-.359375-.539062-.671875-1.121093-.921875-1.71875-.25-.609375-.4375-1.230469-.566406-1.871093-.132813-.648438-.203125-1.300782-.203125-1.949219 0-.660157.070312-1.3125.203125-1.960938.128906-.640625.316406-1.269531.566406-1.871093.25-.597657.5625-1.179688.921875-1.726563.359375-.542969.78125-1.0625 1.238281-1.523437.460938-.457032.972657-.878907 1.523438-1.238282.539062-.359375 1.117187-.667968 1.726562-.917968.601563-.25 1.230469-.441407 1.871094-.570313 1.289063-.261719 2.621094-.261719 3.910156 0 .628907.128906 1.261719.320313 1.871094.570313.597656.25 1.179687.558593 1.71875.917968.550781.359375 1.0625.78125 1.53125 1.238282.460937.460937.871094.980468 1.238281 1.523437.359375.546875.671875 1.128906.921875 1.726563.25.601562.4375 1.230468.570313 1.871093.128906.648438.1875 1.300781.1875 1.960938 0 .648437-.058594 1.300781-.1875 1.949219-.132813.640624-.320313 1.261718-.570313 1.871093-.25.597657-.5625 1.179688-.921875 1.71875-.367187.550781-.789062 1.058594-1.25 1.53125-.457031.457031-.96875.878907-1.519531 1.238281-.539063.359376-1.121094.671876-1.71875.921876-.609375.25-1.242187.4375-1.871094.570312-.648437.128906-1.300781.195312-1.960937.195312zm0 0"/><path d="m65.3125 154.480469c-4.832031 0-9.078125-3.507813-9.863281-8.429688-.871094-5.453125 2.847656-10.578125 8.300781-11.449219l4.296875-.683593c-.367187-1.679688-.308594-3.476563.265625-5.230469 1.710938-5.25 7.355469-8.117188 12.609375-6.40625l22.027344 7.1875c4.390625 1.433594 7.230469 5.6875 6.867187 10.292969-.363281 4.601562-3.832031 8.359375-8.394531 9.089843l-34.523437 5.503907c-.53125.082031-1.0625.125-1.585938.125zm0 0"/><path d="m245.222656 154.480469c-.523437 0-1.054687-.042969-1.585937-.128907l-34.523438-5.503906c-4.5625-.726562-8.035156-4.484375-8.394531-9.089844-.363281-4.605468 2.472656-8.859374 6.867188-10.289062l22.027343-7.1875c5.246094-1.710938 10.894531 1.152344 12.605469 6.40625.574219 1.753906.632812 3.550781.265625 5.226562l4.296875.6875c5.457031.871094 9.171875 5.996094 8.304688 11.449219-.785157 4.921875-5.035157 8.429688-9.863282 8.429688zm0 0"/><path d="m155.265625 238.046875c-23.191406 0-44.238281-13.710937-53.617187-34.933594-2.230469-5.050781.054687-10.957031 5.105468-13.1875 5.050782-2.234375 10.957032.054688 13.191406 5.105469 6.175782 13.980469 20.042969 23.015625 35.320313 23.015625 15.28125 0 29.144531-9.035156 35.324219-23.015625 2.234375-5.054688 8.136718-7.339844 13.1875-5.105469 5.050781 2.230469 7.339844 8.136719 5.105468 13.1875-9.378906 21.222657-30.421874 34.933594-53.617187 34.933594zm0 0"/><path d="m135.886719 351.945312c-10.398438 0-19.070313 5.519532-24.96875 10.777344-5.820313-5.277344-14.460938-10.777344-25.210938-10.777344-19.515625 0-35.636719 15.601563-36.703125 35.523438-.640625 11.988281 3.957032 20.457031 7.464844 25.785156 7.988281 12.125 41.984375 35.796875 48.71875 40.417969 1.707031 1.171875 3.683594 1.757813 5.660156 1.757813 1.976563 0 3.953125-.585938 5.660156-1.757813 6.710938-4.605469 40.589844-28.203125 48.625-40.425781 3.507813-5.339844 8.097657-13.816406 7.457032-25.78125-1.066406-19.917969-17.1875-35.519532-36.703125-35.519532zm12.535156 50.3125c-3.828125 5.820313-22.65625 20.390626-37.578125 30.972657-14.976562-10.617188-33.875-25.214844-37.675781-30.976563-3.234375-4.914062-4.449219-8.890625-4.191407-13.71875.488282-9.148437 7.996094-16.589844 16.730469-16.589844 7.511719 0 14.664063 8.117188 16.761719 11.203126 1.824219 2.753906 4.890625 4.425781 8.195312 4.46875 3.277344.070312 6.414063-1.542969 8.3125-4.242188 1.699219-2.414062 9.546876-11.429688 16.90625-11.429688 8.738282 0 16.246094 7.441407 16.734376 16.589844.261718 4.816406-.957032 8.792969-4.195313 13.722656zm0 0"/><path d="m356.734375 163.371094c-72.71875 0-133.921875 50.257812-150.710937 117.867187-16.113282 6.535157-33.179688 9.847657-50.757813 9.847657-74.585937 0-135.265625-60.695313-135.265625-135.296876 0-74.597656 60.679688-135.289062 135.265625-135.289062 40.199219 0 78.054687 17.714844 103.855469 48.601562 3.542968 4.238282 9.847656 4.804688 14.085937 1.265626 4.238281-3.542969 4.804688-9.847657 1.265625-14.085938-29.613281-35.449219-73.0625-55.78125-119.207031-55.78125-85.613281 0-155.265625 69.664062-155.265625 155.289062 0 85.632813 69.652344 155.296876 155.265625 155.296876 16.085937 0 31.804687-2.421876 46.898437-7.207032-.460937 4.863282-.695312 9.796875-.695312 14.78125 0 85.628906 69.648438 155.292969 155.265625 155.292969 85.613281 0 155.265625-69.664063 155.265625-155.292969 0-85.625-69.652344-155.289062-155.265625-155.289062zm0 290.582031c-74.585937 0-135.269531-60.6875-135.269531-135.289063 0-74.601562 60.679687-135.292968 135.269531-135.292968 74.585937 0 135.265625 60.691406 135.265625 135.289062 0 74.601563-60.679688 135.292969-135.265625 135.292969zm0 0"/><path d="m266.777344 317.351562c-4.828125 0-9.078125-3.507812-9.863282-8.429687-.867187-5.453125 2.847657-10.578125 8.300782-11.449219l4.296875-.683594c-.367188-1.679687-.304688-3.476562.265625-5.230468 1.714844-5.25 7.359375-8.117188 12.609375-6.40625l22.027343 7.1875c4.390626 1.429687 7.230469 5.683594 6.867188 10.289062-.363281 4.605469-3.832031 8.363282-8.394531 9.089844l-34.523438 5.507812c-.53125.082032-1.0625.125-1.585937.125zm0 0"/><path d="m446.6875 317.351562c-.523438 0-1.050781-.042968-1.585938-.128906l-34.523437-5.503906c-4.5625-.726562-8.03125-4.484375-8.394531-9.089844-.363282-4.605468 2.476562-8.859375 6.867187-10.292968l22.027344-7.183594c5.25-1.714844 10.894531 1.15625 12.609375 6.40625.570312 1.753906.632812 3.550781.265625 5.226562l4.296875.6875c5.453125.871094 9.171875 5.996094 8.300781 11.449219-.785156 4.921875-5.035156 8.429687-9.863281 8.429687zm0 0"/><path d="m356.734375 400.917969c-23.195313 0-44.238281-13.710938-53.617187-34.933594-2.230469-5.050781.054687-10.957031 5.105468-13.1875 5.046875-2.234375 10.953125.054687 13.1875 5.105469 6.179688 13.980468 20.042969 23.015625 35.324219 23.015625 15.277344 0 29.144531-9.035157 35.320313-23.015625 2.234374-5.054688 8.136718-7.339844 13.191406-5.105469 5.050781 2.230469 7.335937 8.136719 5.101562 13.1875-9.375 21.222656-30.421875 34.933594-53.613281 34.933594zm0 0"/><path d="m417.824219 72.652344c-2.558594 0-5.117188-.976563-7.066407-2.929688-3.90625-3.90625-3.90625-10.238281-.003906-14.144531l5.699219-5.699219c3.90625-3.90625 10.238281-3.90625 14.144531 0 3.90625 3.902344 3.90625 10.234375 0 14.140625l-5.699218 5.703125c-1.953126 1.953125-4.511719 2.929688-7.074219 2.929688zm0 0"/><path d="m320 32.121094c-5.523438 0-10-4.476563-10-10v-11.621094c0-5.523438 4.476562-10 9.996094-10 5.523437 0 10.003906 4.476562 10.003906 10v11.621094c0 5.519531-4.476562 10-10 10zm0 0"/><path d="m469.96875 170.496094h-11.621094c-5.519531 0-10-4.480469-9.996094-10.003906 0-5.519532 4.476563-9.996094 10-9.996094h11.617188c5.523438 0 10 4.476562 10 10 0 5.523437-4.476562 10-10 10zm0 0"/></svg>