<?xml version="1.0" encoding="utf-8"?>
<!-- Generator: Adobe Illustrator 13.0.0, SVG Export Plug-In . SVG Version: 6.00 Build 14948)  -->
<!DOCTYPE svg PUBLIC "-//W3C//DTD SVG 1.1//EN" "http://www.w3.org/Graphics/SVG/1.1/DTD/svg11.dtd">
<svg version="1.1" id="Layer_2" xmlns="http://www.w3.org/2000/svg" xmlns:xlink="http://www.w3.org/1999/xlink" x="0px" y="0px"
	 width="689.952px" height="150.675px" viewBox="0 0 689.952 150.675" enable-background="new 0 0 689.952 150.675"
	 xml:space="preserve">
<g>
	<g>
		<path fill-rule="evenodd" clip-rule="evenodd" fill="#FFFFFF" d="M55.932,36.11c0.124,0.64-0.53,0.503-0.712,0.238
			C55.375,36.036,55.609,35.985,55.932,36.11z"/>
	</g>
	<g>
		<g>
			<path d="M79.792,114.939c0.013-0.045,0.02-0.091,0.02-0.139c-0.002-0.012-0.003-0.025-0.001-0.04
				C79.814,114.803,79.815,114.859,79.792,114.939z"/>
			<path d="M88.667,114.352c-0.99-0.459-3.235-0.875-5.01-0.886c-0.717,0.006-1.337,0.061-1.833,0.294
				c-0.485,0.308-0.537,0.673-0.793,1.037c-0.202,0.371-0.467,0.603-0.5,0.583c-0.004-0.002-0.023,0-0.033,0
				c-0.092,0.005-0.309-0.068-0.458-0.199c-0.156-0.132-0.229-0.284-0.225-0.38v-0.061c0.034-0.151,0.26-0.408,0.654-0.729
				c0.415-0.367,0.992-0.823,1.121-1.629c0.033-0.233,0.05-0.454,0.05-0.667c-0.041-2.275-1.705-3.422-2.043-4.609
				c0.085-0.289,0.125-0.573,0.125-0.846c-0.104-2.202-2.239-3.441-2.129-4.789c0.002-0.323,0.092-0.68,0.367-1.121l0.244-0.394
				l-0.371-0.273c-1.644-1.171-1.548-2.883-3.146-4.576c-2.094-2.008-4.7-1.748-5.464-4.092c-0.215-0.55-0.111-1.298-0.35-2.118
				c-0.354-1.083-0.904-1.741-1.058-2.458c-0.233-0.987-0.498-2.011-0.583-3.015c-0.221-2.975-1.623-3.46-2.858-4.804
				c-0.556-0.539-0.594-1.593-1.638-2.335c-0.573-0.325-1.26-0.281-1.731-0.515c-0.912-0.356-1.631-1.558-3.1-1.616
				c-0.133,0-0.267,0.015-0.4,0.039c-0.579,0.119-0.91,0.517-1.235,0.805c-0.312,0.316-0.604,0.487-0.64,0.458
				c-0.012-0.001-0.062,0.006-0.172-0.11c0.285-0.577,0.412-0.999,1.12-1.26c0.452-0.169,1.121-0.207,1.742-0.365
				c0.598-0.112,1.354-0.612,1.323-1.517c0-0.054-0.002-0.11-0.006-0.168c-0.121-0.645-0.543-0.814-0.835-1.113
				c-0.156-0.131-0.294-0.258-0.377-0.362c-0.085-0.105-0.089-0.158-0.091-0.158v-0.001c0-0.007,0-0.015-0.001-0.021
				c0.023-0.099,0.279-0.459,0.707-0.807c0.458-0.41,1.021-0.835,1.362-1.404c0.36-0.67,0.35-1.387,0.598-1.787
				c0.221-0.429,0.773-0.783,1.177-1.406c0.441-0.737,0.475-1.383,0.754-2.104c0.073-0.269,0.529-0.667,0.729-1.358
				c0.2-0.868,0.038-1.589,0.227-2.104c0.227-0.838,1.621-1.881,1.915-3.029c0.048-0.248,0.071-0.496,0.069-0.741
				c-0.006-1.575-0.902-3.188-2.481-3.522c-0.171-0.038-0.352-0.051-0.538-0.051c-0.935,0.007-2.1,0.294-3.264,0.29
				c-0.144,0-0.283-0.002-0.419-0.011c-0.752-0.048-1.489-0.243-2.191-0.248c-0.091-0.002-0.179,0.003-0.262,0.013
				c-0.559,0.064-0.892,0.255-1.069,0.235c-0.023,0-0.038,0-0.046,0c-0.502,0.009-1.022-0.566-2.116-0.604
				c-0.071,0.002-0.138,0.006-0.204,0.01c-1.651,0.199-2.307,1.257-3.588,1.412c0.086-0.183,0.208-0.351,0.357-0.556
				c0.273-0.368,0.642-0.873,0.688-1.631l0.027-0.41l-0.396-0.104c-0.758-0.225-0.758-0.397-0.756-0.45
				c-0.059-0.186,0.512-0.933,1.271-1.526c0.748-0.627,1.567-1.175,1.971-1.586c0.579-0.622,0.742-1.164,0.917-1.272
				c0.582-0.544,1.396-0.647,1.981-1.397c0.4-0.567,0.521-1.138,0.514-1.629c-0.002-0.508-0.094-0.934-0.091-1.344
				c0.004-0.377,0.062-0.748,0.321-1.23l0.181-0.34l-0.281-0.266l-0.342,0.367l0.342-0.367c-0.619-0.582-1.356-0.812-2.058-0.806
				c-1.569,0.021-3.077,0.939-4.42,1.154c-0.061,0.011-0.15,0.017-0.252,0.017c-0.3,0.002-0.712-0.053-1.14-0.055
				c-0.167,0-0.335,0.011-0.506,0.038c-0.92,0.179-1.479,0.634-1.758,0.589c-0.019,0-0.029-0.002-0.031-0.002
				c0.002,0.002,0,0.002-0.061-0.026c-0.192-0.077-0.559-0.347-1.066-0.442c-0.134-0.024-0.267-0.031-0.392-0.031
				c-0.341,0.002-0.647,0.051-0.848,0.051c-0.075,0-0.133-0.006-0.165-0.015c-0.667-0.112-1.102-0.667-1.994-0.724
				c-0.046,0-0.071,0.005-0.075,0.005c-1.15,0.073-1.6,1.208-1.917,2.247c-0.292,1.011-0.448,2.154-0.61,2.856
				c-0.074,0.042-0.223,0.107-0.425,0.183c-0.271,0.099-0.756,0.398-0.806,0.972c-0.012,0.068-0.021,0.166-0.021,0.256
				c0.025,0.438,0.14,0.673,0.208,0.838c-0.396,0.291-0.612,0.736-0.594,1.147c0.014,0.561,0.257,1.049,0.485,1.46
				c-0.343,0.159-0.797,0.191-1.333,0.239c-0.673,0.046-1.616,0.257-2.031,1.257c-0.111,0.247-0.14,0.506-0.14,0.75
				c0.008,0.673,0.208,1.335,0.202,1.862c0,0.195-0.023,0.362-0.075,0.502c-0.105,0.366-0.419,0.5-0.91,0.84
				c-0.153-0.331-0.317-0.733-0.511-1.111c-0.295-0.568-0.748-1.232-1.602-1.25c-0.052,0-0.088,0.003-0.11,0.005
				c-0.682,0.033-1.042,0.61-1.171,0.989c-0.102,0.264-0.185,0.506-0.281,0.694c-0.122-0.068-0.331-0.166-0.585-0.161
				c-0.096,0-0.188,0.011-0.277,0.029l-0.125,0.025l-0.096,0.083c-0.821,0.702-1.396,1.637-1.406,2.608
				c-0.023,0.998,0.744,1.884,2.092,2.142c0.547,1.232,1.395,2.509,3.15,2.744c0.217,0.676,0.72,1.134,1.311,1.392
				c-0.072,0.332-0.076,0.665-0.079,0.976c0,0.204,0.006,0.397,0.006,0.564c0,0.101-0.002,0.194-0.006,0.275
				c-0.124,0.062-0.363,0.132-0.668,0.175c-0.411,0.085-0.938,0.118-1.365,0.568l-0.146,0.163l0.023,0.221
				c0.004,0.035,0.006,0.079,0.006,0.118c0.004,0.371-0.207,0.728-0.506,1.142c-0.279,0.41-0.675,0.851-0.692,1.529
				c0,0.013,0.001,0.024,0.002,0.035c0,0.626,0.397,1.031,0.631,1.235c0.215,0.209,0.335,0.31,0.412,0.578
				c-0.05,0.029-0.161,0.075-0.407,0.141c-0.317,0.068-1.035,0.287-1.108,1.061l-0.012,0.131l0.056,0.121
				c0.367,0.829,1.198,1.118,1.929,1.098c1.177-0.014,2.525-0.516,3.354-0.584c-0.179,1.314-1.702,2.123-2.649,3.582
				c-1.613,0.383-3.431,1.318-3.453,3.393c0,0.226,0.023,0.461,0.069,0.704l0.071,0.375l0.383,0.031
				c0.669,0.02,0.771,0.625,1.462,1.396l0.167,0.171l0.24-0.025c1.56-0.148,2.229-1.342,2.635-2.352
				c0.332-0.816,0.611-1.566,1.045-2.021c0.086,0.335,0.13,0.798,0.153,1.292c-0.402,0.441-0.487,1.014-0.48,1.495
				c0,0.421,0.048,0.833,0.048,1.227c0,0.175-0.008,0.342-0.031,0.506c-0.059,0.613-0.613,1.349-0.644,2.296
				c-0.002,0.285,0.069,0.592,0.233,0.871l0.042,0.075l0.068,0.056c0.337,0.287,0.752,0.406,1.135,0.402
				c0.677-0.004,1.277-0.305,1.725-0.61l0.079-0.055l0.052-0.077c0.325-0.524,0.283-1.076,0.335-1.526
				c0.009-0.152,0.028-0.276,0.049-0.375c0.411,0.366,0.958,0.78,1.692,0.804c0.392,0.002,0.808-0.154,1.16-0.467l0.156-0.139
				l0.015-0.209c0.021-0.366,0.044-0.756,0.044-1.149c-0.002-0.666-0.057-1.352-0.301-1.975c0.2,0.034,0.296,0.017,0.282,0.048
				c0.798,0.583,1.767,1.741,1.714,2.308c0,0.031-0.002,0.061-0.006,0.086c0.071,0.105-0.7,0.8-1.142,1.624
				c-0.581,1.221-1.081,2.816-1.519,3.517c-0.2,0.421-0.915,0.669-1.133,1.6c-0.036,0.186-0.05,0.365-0.05,0.533
				c0.031,1.386,1.021,1.834,1.425,2.548c0.11,0.165,0.214,0.513,0.362,0.858c0.131,0.321,0.436,0.82,1.052,0.827
				c0.108,0,0.219-0.017,0.327-0.046l0.073-0.021l0.067-0.042c0.321-0.191,0.462-0.583,0.448-0.852
				c-0.019-0.484-0.205-0.896-0.213-1.074c0.484,0.057,0.696,0.294,1.076,0.678c0.377,0.408,0.967,0.987,1.967,0.976
				c0.05,0,0.102,0,0.154-0.003l0.09-0.004l0.079-0.033c0.535-0.237,0.648-0.723,0.735-1.004c0.024-0.096,0.049-0.177,0.073-0.243
				c0.447,0.188,0.892,0.275,1.319,0.274c1.778-0.043,3.158-1.355,4.24-1.995c-0.474,1.336-1.673,2.432-1.729,4.242
				c-0.002,0.108,0.004,0.217,0.015,0.33c0.139,1.045,0.987,1.718,1.235,2.304c0.617,1.256,1.108,2.903,2.094,4.032l0.131,0.148
				l0.196,0.019c0.077,0.007,0.144,0.007,0.198,0.007c0.654,0.014,1.056-0.432,1.231-0.663c0.033-0.037,0.062-0.069,0.087-0.098
				c-0.231,0.818-1.017,1.844-1.062,3.133c-0.002,0.451,0.123,0.929,0.407,1.393c-0.332,0.51-0.596,1.149-0.596,1.913
				c0,0.248,0.028,0.505,0.087,0.771c-0.196,0.41-0.335,0.48-0.579,0.581c-0.277,0.104-0.763,0.129-1.394,0.289
				c-0.61,0.175-1.027,0.469-1.221,0.459c0.002,0,0.003,0,0.003,0s-0.001,0-0.003,0c-0.008,0-0.029,0-0.059,0
				c-0.296,0.017-0.829-0.228-1.479-0.242c-0.062,0-0.102,0.004-0.119,0.007c-0.689,0.074-1.064,0.396-1.242,0.354
				c-0.01,0-0.019,0-0.029,0c-0.84,0.069-1.198-1.181-2.652-1.537c-0.094-0.021-0.198-0.023-0.284-0.023
				c-1.422,0.08-2.483,1.342-2.554,2.459c0,0.052,0.002,0.096,0.006,0.135c0.119,0.84,0.796,1.193,1.25,1.546
				c0.502,0.362,0.779,0.642,0.767,0.962c0,0.013,0,0.023,0,0.029c0.006,0.371-0.354,0.603-1.036,0.99
				c-0.617,0.344-1.498,0.92-1.491,2.1c0,0.146,0.014,0.294,0.037,0.447l0.038,0.229l0.204,0.121
				c0.421,0.25,0.829,0.373,1.217,0.373c1.257-0.096,1.856-1.04,2.441-1.306c0.477,1.014,0.717,2.09,0.717,3.101
				c-0.01,2.046-0.939,3.787-2.875,4.531c-0.181,0.096-0.654,0.015-1.221,0.252c-0.762,0.396-1.123,1.01-1.377,1.048
				c-0.515,0.179-1.273,0.441-1.938,0.806c-0.62,0.356-1.268,0.794-1.357,1.59c-0.009,0.044-0.009,0.064-0.009,0.102
				c0.015,0.531,0.323,0.838,0.504,1.084c0.207,0.248,0.298,0.423,0.288,0.5c-0.002,0.05-0.008,0.118-0.106,0.258l-0.267,0.377
				l0.356,0.296c0.714,0.544,1.079,1.494,2.289,1.656c0.075,0.004,0.138,0.006,0.2,0.006c0.829-0.006,1.446-0.451,1.956-0.806
				c0.471-0.345,0.871-0.598,1.143-0.623h0.071c0.571,0.055,0.473,0.098,0.654,0.483c0.131,0.354,0.177,1.066,0.889,1.475
				c0.317,0.167,0.629,0.246,0.923,0.246c0.191-0.011,0.352-0.048,0.508-0.088c-0.187-0.289-0.337-0.594-0.454-0.914
				c-0.018,0-0.037,0.004-0.054,0.002c-0.121,0-0.256-0.027-0.454-0.129c-0.173-0.066-0.254-0.365-0.406-0.896
				c-0.103-0.498-0.632-1.212-1.569-1.181c-0.013-0.001-0.026-0.001-0.039-0.001c-0.76,0.017-1.29,0.467-1.79,0.807
				c-0.502,0.362-0.954,0.633-1.379,0.625c-0.038,0-0.079,0-0.123-0.005c-0.437,0-0.743-0.49-1.428-1.152
				c0.052-0.145,0.079-0.292,0.078-0.437c-0.011-0.538-0.314-0.875-0.504-1.123c-0.183-0.217-0.275-0.378-0.288-0.438l0-0.022
				c-0.034-0.135,0.264-0.51,0.848-0.814c0.561-0.31,1.275-0.562,1.783-0.737c0.773-0.318,1.062-0.935,1.473-1.089
				c0.167-0.104,0.602-0.042,1.152-0.224c2.373-0.897,3.533-3.12,3.521-5.464c0-1.298-0.339-2.651-1-3.899l-0.156-0.296
				l-0.333,0.031c-1.446,0.248-2.015,1.479-2.668,1.367c-0.133,0-0.292-0.028-0.495-0.121c0-0.017-0.001-0.032-0.001-0.048
				c0.006-0.621,0.363-0.854,0.994-1.235c0.569-0.338,1.469-0.742,1.531-1.821c0.002-0.028,0.002-0.048,0.002-0.062
				c-0.014-0.923-0.696-1.414-1.179-1.771c-0.529-0.362-0.86-0.673-0.842-0.844c-0.002-0.008-0.004-0.028-0.004-0.028
				c-0.013-0.159,0.173-0.594,0.496-0.915c0.316-0.333,0.733-0.552,1.06-0.544c0.048-0.002,0.083,0.002,0.108,0.007
				c0.689-0.019,1.173,1.397,2.81,1.554c0.025,0,0.036,0,0.046,0c0.698-0.042,1.044-0.379,1.304-0.356
				c0.046-0.004,0.056-0.004,0.056-0.006c0.344-0.015,0.854,0.227,1.479,0.243c0.023,0,0.061,0,0.115,0
				c0.663-0.079,1.045-0.416,1.415-0.489c0.521-0.14,0.975-0.147,1.473-0.314c0.506-0.16,0.977-0.587,1.242-1.291l0.06-0.156
				l-0.043-0.159c-0.067-0.25-0.096-0.479-0.096-0.689c0.002-0.639,0.258-1.153,0.604-1.607l0.233-0.309l-0.235-0.302
				c-0.316-0.413-0.408-0.746-0.412-1.088c-0.052-0.991,1.064-2.123,1.123-3.607c0-0.094-0.004-0.186-0.015-0.275l-0.043-0.392
				l-0.39-0.05c-0.073-0.009-0.15-0.017-0.233-0.017c-0.656-0.015-1.056,0.433-1.233,0.664c-0.198,0.222-0.226,0.278-0.385,0.298
				c-0.701-0.894-1.193-2.365-1.798-3.635c-0.435-0.825-1.137-1.517-1.139-1.962c-0.008-0.082-0.011-0.161-0.011-0.236
				c-0.071-1.508,1.625-2.691,1.911-5.012l0.064-0.689l-0.673,0.152c-1.737,0.467-3.225,2.358-4.812,2.302
				c-0.385-0.002-0.788-0.096-1.242-0.35l-0.271-0.152l-0.254,0.173c-0.441,0.323-0.494,0.752-0.585,1.019
				c-0.05,0.185-0.097,0.278-0.126,0.322c-0.599-0.02-0.809-0.258-1.217-0.668c-0.377-0.402-0.95-0.989-1.938-0.994L42.44,90.92
				l-0.082,0.027c-0.441,0.11-0.727,0.606-0.689,0.945c0.014,0.341,0.11,0.643,0.168,0.856c-0.101-0.24-0.232-0.641-0.439-1.002
				c-0.694-1.027-1.302-1.267-1.271-2.015c0-0.108,0.011-0.225,0.034-0.357c-0.011-0.268,0.504-0.527,1.004-1.255
				c0.548-0.91,1.019-2.473,1.566-3.604c0.24-0.59,1.038-1.048,1.233-1.933c0.008-0.077,0.012-0.145,0.012-0.211
				c-0.054-1.3-1.229-2.383-2.102-3.098c-0.252-0.193-0.511-0.223-0.669-0.243c-0.168-0.015-0.21-0.036-0.214-0.031
				c-0.077-0.034-0.194-0.209-0.363-0.485c-0.15-0.255-0.51-0.663-1.068-0.652h-0.006c-0.044-0.002-0.188,0.008-0.316,0.11
				c-0.242,0.213-0.425,0.473-0.425,0.798c0.042,0.575,0.423,0.772,0.65,0.965c0.254,0.179,0.469,0.362,0.479,0.406
				c0.252,0.462,0.341,1.129,0.339,1.85c0,0.281-0.013,0.57-0.03,0.859c-0.131,0.081-0.237,0.102-0.345,0.104
				c-0.381,0.031-0.996-0.495-1.446-0.927L38.207,81.8l-0.302,0.152c-0.656,0.365-0.683,1.021-0.735,1.489
				c-0.024,0.417-0.066,0.813-0.131,0.983c-0.325,0.21-0.749,0.379-1.064,0.373c-0.166-0.004-0.298-0.036-0.421-0.117
				c-0.042-0.094-0.056-0.182-0.058-0.289c-0.031-0.467,0.479-1.219,0.635-2.16c0.029-0.225,0.04-0.439,0.04-0.642
				c-0.002-0.467-0.05-0.888-0.048-1.227c0.006-0.474,0.069-0.702,0.302-0.898l0.198-0.16l-0.012-0.252
				c-0.061-0.858-0.019-1.811-0.587-2.548l-0.258-0.314l-0.361,0.188c-1.177,0.636-1.504,1.879-1.92,2.831
				c-0.401,0.913-0.73,1.522-1.574,1.706c-0.303-0.411-0.635-1.169-1.524-1.429c-0.005-0.065-0.008-0.129-0.008-0.19
				c-0.023-1.389,1.302-2.107,2.873-2.46l0.225-0.05l0.108-0.204c0.617-1.302,2.848-2.223,2.91-4.598
				c0-0.062-0.002-0.116-0.002-0.158l-0.008-0.412l-0.404-0.069c-0.127-0.022-0.258-0.031-0.388-0.031
				c-1.133,0.017-2.575,0.606-3.566,0.592c-0.474-0.018-0.731-0.092-0.916-0.34c0.051-0.022,0.144-0.053,0.313-0.105
				c0.3-0.086,0.985-0.204,1.161-0.948l0.019-0.092l-0.015-0.089c-0.1-0.673-0.506-1.067-0.748-1.283
				c-0.252-0.253-0.298-0.265-0.315-0.538v-0.048l-0.001-0.007c0.019-0.192,0.214-0.505,0.505-0.897
				c0.29-0.41,0.662-0.936,0.69-1.647c0.139-0.059,0.374-0.119,0.656-0.16c0.415-0.086,0.95-0.125,1.362-0.603l0.085-0.105
				l0.021-0.132c0.029-0.197,0.033-0.394,0.033-0.596c0-0.189-0.006-0.381-0.006-0.564c-0.004-0.443,0.044-0.862,0.154-1.052
				l0.304-0.562l-0.617-0.16c-0.717-0.213-1.048-0.465-1.175-1.138l-0.065-0.4l-0.404-0.021c-1.615-0.1-2.154-1.059-2.773-2.429
				l-0.11-0.257l-0.275-0.039c-1.26-0.225-1.487-0.667-1.514-1.195c-0.01-0.502,0.345-1.204,0.937-1.743
				c0.015,0.004,0.033,0.015,0.105,0.054c0.1,0.06,0.329,0.197,0.627,0.199l0.221,0.002l0.152-0.158
				c0.408-0.438,0.522-0.945,0.656-1.258c0.163-0.342,0.161-0.344,0.321-0.366c0.034-0.005,0.034-0.003,0.034-0.005
				c0.202-0.017,0.441,0.191,0.714,0.715c0.265,0.498,0.481,1.154,0.819,1.677l0.321,0.489l0.435-0.396
				c0.457-0.467,1.271-0.6,1.675-1.623c0.102-0.283,0.133-0.568,0.133-0.841c-0.006-0.728-0.21-1.415-0.202-1.862
				c0-0.159,0.022-0.277,0.054-0.349c0.244-0.528,0.542-0.577,1.217-0.664c0.627-0.071,1.51-0.046,2.233-0.721l0.281-0.269
				l-0.189-0.338c-0.283-0.485-0.594-1.072-0.577-1.366c0.023-0.186,0.008-0.244,0.348-0.428l0.293-0.133v-0.321
				c0-0.01,0-0.019,0-0.028c-0.04-0.686-0.296-0.875-0.256-1.075c0-0.038,0.004-0.075,0.01-0.112
				c0.025-0.106-0.019-0.077,0.208-0.192c0.198-0.1,0.575-0.16,0.888-0.548l0.061-0.083l0.023-0.096
				c0.196-0.785,0.348-1.977,0.633-2.958c0.284-1.021,0.719-1.585,1.025-1.529l0.006-0.404v0.404c0.033,0,0.046-0.003,0.049-0.004
				c0.264,0.012,0.82,0.477,1.732,0.704c0.133,0.029,0.258,0.036,0.377,0.036c0.321-0.002,0.617-0.051,0.848-0.049
				c0.085,0,0.154,0.004,0.213,0.018c0.339,0.031,0.631,0.383,1.25,0.482c0.04,0.002,0.069,0,0.088,0
				c0.852-0.043,1.314-0.529,1.922-0.6c0.1-0.017,0.215-0.025,0.342-0.025c0.337-0.002,0.742,0.053,1.14,0.055
				c0.135,0,0.272-0.006,0.415-0.029c1.595-0.293,3.106-1.162,4.258-1.142c0.402,0.003,0.748,0.083,1.095,0.317
				c-0.197,0.481-0.259,0.931-0.256,1.324c0.002,0.541,0.094,0.979,0.089,1.344c-0.004,0.358-0.056,0.646-0.335,1.056
				c-0.154,0.302-0.979,0.525-1.817,1.215c-0.496,0.473-0.552,0.912-0.981,1.335c-0.237,0.256-1.11,0.864-1.892,1.513
				c-0.771,0.683-1.568,1.331-1.627,2.293c0.002,0.59,0.422,1.023,1.054,1.275c-0.083,0.258-0.23,0.462-0.425,0.73
				c-0.271,0.367-0.642,0.867-0.692,1.623l-0.037,0.509l0.512,0.026c0.09,0.002,0.175,0.005,0.256,0.005
				c2.129-0.051,2.91-1.415,4.081-1.432c0.048-0.006,0.088-0.008,0.121-0.008c0.608-0.036,1.045,0.487,2.06,0.602
				c0.05,0.002,0.079,0.002,0.102,0.002c0.561-0.021,0.873-0.231,1.163-0.239c0.06-0.006,0.112-0.009,0.168-0.011
				c0.498-0.004,1.263,0.186,2.129,0.248c0.167,0.009,0.325,0.013,0.481,0.013c1.306-0.004,2.537-0.296,3.264-0.29
				c0.138,0,0.25,0.011,0.333,0.029c0.938,0.158,1.693,1.323,1.685,2.544c0,0.186-0.017,0.37-0.05,0.556
				c-0.019,0.471-1.433,1.669-1.883,2.902c-0.267,0.873-0.087,1.622-0.246,2.17c-0.057,0.309-0.446,0.659-0.698,1.252
				c-0.321,0.88-0.366,1.459-0.668,1.934c-0.2,0.362-0.792,0.744-1.198,1.441c-0.379,0.725-0.394,1.491-0.589,1.771
				c-0.171,0.311-0.677,0.74-1.159,1.158c-0.462,0.439-1,0.829-1.045,1.579v0.002c0,0.005,0,0.01,0,0.015c0,0.001,0,0.002,0,0.003
				c0.001,0.026,0.003,0.052,0.006,0.072h0.001c0.078,0.611,0.511,0.907,0.809,1.189c0.165,0.142,0.319,0.269,0.411,0.366
				c0.042,0.043,0.072,0.079,0.083,0.098c0,0.019,0,0.038,0,0.057c-0.029,0.371-0.087,0.377-0.577,0.55
				c-0.471,0.13-1.171,0.159-1.827,0.393c-1.304,0.46-1.533,1.576-1.802,1.993l-0.163,0.267l0.173,0.263
				c0.298,0.475,0.708,0.789,1.183,0.787c0.64-0.029,0.992-0.438,1.325-0.729c0.318-0.318,0.633-0.556,0.723-0.55
				c0.087-0.015,0.158-0.021,0.227-0.022c0.754-0.057,1.45,0.916,2.689,1.529c0.7,0.293,1.571,0.366,1.591,0.435
				c0.59,0.334,0.654,1.244,1.45,2.177c1.502,1.634,2.344,1.567,2.6,4.215c0.096,1.116,0.377,2.188,0.606,3.158
				c0.252,1.017,0.817,1.662,1.077,2.528c0.179,0.509,0.071,1.296,0.362,2.156c1.169,3.041,4.183,2.787,5.693,4.454
				c1.232,1.19,1.249,2.919,2.922,4.4c-0.208,0.433-0.305,0.856-0.304,1.264c0.111,2.149,2.233,3.361,2.129,4.789
				c0,0.206-0.034,0.42-0.117,0.666l-0.048,0.14l0.035,0.144c0.521,1.796,2.089,2.735,2.045,4.506c0,0.163-0.01,0.338-0.037,0.525
				c-0.036,0.325-0.35,0.647-0.783,1.012c-0.398,0.36-0.973,0.755-1.002,1.548h0.005c0,0.001,0,0.002,0,0.002h-0.005
				c0,0.01,0.001,0.02,0.002,0.029c-0.005,0.068,0.004,0.105,0.016,0.128c0.14,0.891,0.932,1.385,1.666,1.42
				c0.073,0,0.135-0.006,0.183-0.013c0.681-0.156,0.952-0.664,1.208-1.054c0.121-0.202,0.225-0.394,0.308-0.527
				c0.042-0.066,0.079-0.118,0.098-0.142h0c0,0,0,0,0,0c0.236-0.106,0.755-0.185,1.362-0.179c1.589-0.011,3.887,0.445,4.581,0.789
				c1.627,0.767,2.731,2.606,2.731,4.688c0,0.239-0.015,0.485-0.046,0.735c-0.046,0.475-0.39,1.004-0.691,1.927
				c-0.25,0.833-0.265,1.84-0.452,2.195c-0.175,0.5-1.458,1.186-2.206,2.175c-0.464,0.74-0.387,1.211-0.623,1.327
				c-0.15,0.158-0.656,0.213-1.422,0.522l-0.273,0.115l-0.029,0.294c-0.135,1.285-0.556,2.122-1.31,2.593l-0.325,0.202l0.112,0.369
				c0.348,1.191,1.477,1.447,2.358,1.416c0.521-0.002,1.045-0.054,1.519-0.054c0.267,0,0.515,0.018,0.734,0.06
				c0.013,0.512,0.045,0.953,0.045,1.319c-0.002,0.564-0.071,0.902-0.298,1.193c-0.179,0.331-1.066,0.327-1.912,0.851
				c-0.638,0.461-0.855,1.062-1.104,1.513c-1.461,0.347-2.252,0.695-3.667,1.284c-0.762,0.338-1.404,0.827-1.525,0.794
				c-0.027,0.004-0.064,0.006-0.108,0.006c-0.646,0.046-1.677-0.76-3.027-0.839c-0.059-0.002-0.129-0.004-0.204-0.004
				c-0.886,0-2.075,0.173-2.898,0.375c-0.829,0.214-1.323,0.545-1.939,0.533c-0.239,0-0.514-0.042-0.86-0.163l-0.4-0.142
				l-0.204,0.369c-0.281,0.51-0.464,0.987-0.668,1.291c-0.217,0.305-0.352,0.425-0.723,0.473c-0.021,0-0.045,0.003-0.066,0.003
				c-0.661,0.11-1.529-1.292-3.04-1.546c-0.104-0.011-0.208-0.019-0.314-0.019c-0.604-0.017-1.089,0.278-1.366,0.625
				c-0.252,0.293-0.44,0.6-0.723,0.928c-0.712-0.037-1.419-0.279-2.19-0.289c-0.346-0.004-0.722,0.065-1.073,0.252
				c-0.874-0.871-2.144-1.241-3.395-1.241c-1.689,0.007-3.431,0.654-4.341,1.979l-0.125,0.183l0.054,0.215
				c0.025,0.1,0.038,0.219,0.038,0.35c0.004,0.561-0.269,1.332-0.635,1.939c-0.337,0.615-0.869,1.05-0.918,1.021
				c-0.061,0.012-0.11,0.015-0.159,0.017c-0.206,0.061-0.415-0.311-1.292-0.805c-0.943-0.48-2.22-0.841-3.516-0.841
				c-0.677,0-1.36,0.096-1.998,0.348c-0.49,0.245-2.375,1.647-2.833,2.189c-0.4,0.552-0.488,1.107-0.602,1.396
				c-0.161,0.285-0.034,0.243-0.423,0.296c0.004,0-0.006,0-0.006,0c-0.19,0-0.281-0.092-0.542-0.423
				c-0.229-0.294-0.587-0.803-1.293-0.879c-0.054-0.009-0.121-0.013-0.186-0.013c-0.929,0.054-1.431,0.64-1.458,0.535
				c0-0.004-0.021,0.01-0.112-0.067c-0.047-0.16-0.065-0.291-0.065-0.391c0.009-0.365,0.186-0.523,0.677-0.761
				c0.477-0.217,1.127-0.348,1.673-0.616c1.641-0.845,2.133-2.415,2.863-3.636c1.138-0.645,2.548-1.471,3.084-3.063
				c0.261-0.98,0.047-1.798,0.42-2.24c0.012-0.002,0.03-0.005,0.055-0.008c0.071-0.011,0.175-0.015,0.293-0.015
				c0.077,0,0.15-0.002,0.219-0.002c0.279-0.011,0.6,0.022,0.964-0.215l0.177-0.127l0.027-0.213c0.202-1.422,1.254-1.964,3.319-2.06
				c0.048-0.002,0.077-0.004,0.098-0.004c0.094-0.001,0.206,0.018,0.306,0.024c-0.239-0.351-0.505-0.682-0.784-1.001
				c-0.132,0.007-0.268,0.009-0.396,0.022c-1.723,0.178-3.125,0.949-3.479,2.567c-0.065,0.005-0.145,0.007-0.231,0.007
				c-0.077,0-0.152,0-0.219,0c-0.271,0.009-0.577-0.015-0.925,0.193l-0.05,0.034l-0.042,0.046c-0.864,1.002-0.471,2.164-0.702,2.677
				c-0.375,1.183-1.573,1.925-2.737,2.568l-0.117,0.064l-0.067,0.112c-0.844,1.419-1.279,2.763-2.527,3.373
				c-0.354,0.185-1.017,0.329-1.627,0.596c-0.596,0.241-1.279,0.771-1.271,1.675c0,0.262,0.054,0.539,0.158,0.835l0.036,0.103
				l0.077,0.079c0.252,0.269,0.571,0.443,0.904,0.439c0.846-0.104,1.079-0.588,1.458-0.533c0.019,0,0.044,0.002,0.069,0.004
				c0.229,0.022,0.363,0.167,0.621,0.5c0.225,0.298,0.614,0.809,1.331,0.811c0-0.002,0.01,0,0.01,0
				c0.026,0.001,0.052,0.002,0.078,0.002c0.686,0,1.167-0.522,1.276-0.946c0.158-0.438,0.225-0.822,0.475-1.16
				c-0.002-0.024,0.637-0.572,1.206-0.995c0.292-0.222,0.583-0.438,0.814-0.601c0.115-0.081,0.214-0.149,0.288-0.197
				c0.038-0.023,0.066-0.042,0.085-0.053l-0.001-0.002c0.493-0.194,1.053-0.279,1.63-0.279c1.106-0.002,2.267,0.325,3.06,0.733
				c0.604,0.261,0.811,0.853,1.748,0.912c0.113,0.003,0.233-0.01,0.36-0.035c0.675-0.186,1.119-0.769,1.577-1.487
				c0.427-0.729,0.769-1.606,0.775-2.452c0-0.116-0.006-0.232-0.021-0.348c0.669-0.846,2.046-1.387,3.396-1.381
				c1.202,0,2.323,0.414,2.915,1.208l0.325,0.427l0.406-0.355c0.261-0.224,0.485-0.283,0.823-0.288
				c0.577-0.012,1.402,0.286,2.4,0.294h0.006h0.217l0.147-0.156c0.446-0.475,0.694-0.896,0.894-1.118
				c0.212-0.217,0.256-0.265,0.614-0.283c0.056,0,0.127,0.004,0.207,0.014c0.839-0.008,1.646,1.439,3.147,1.55
				c0.054,0,0.106-0.002,0.152-0.006c0.7-0.054,1.194-0.473,1.471-0.916c0.214-0.328,0.366-0.675,0.526-1.004
				c0.273,0.066,0.53,0.097,0.773,0.095c0.962-0.01,1.571-0.429,2.175-0.562c0.731-0.182,1.906-0.349,2.663-0.347
				c0.054,0,0.11,0,0.165,0.005c0.931-0.002,1.871,0.791,3.066,0.837c0.066,0,0.135-0.002,0.208-0.008
				c0.727-0.123,1.191-0.634,1.808-0.867c1.504-0.622,2.188-0.931,3.716-1.281l0.204-0.045l0.11-0.18
				c0.381-0.646,0.534-1.131,0.931-1.396c0.371-0.336,1.39-0.233,2.121-1.048c0.436-0.548,0.517-1.186,0.515-1.814
				c0-0.522-0.05-1.073-0.05-1.7l-0.002-0.348l-0.321-0.121c-0.463-0.173-0.944-0.21-1.406-0.21c-0.542,0-1.069,0.054-1.519,0.054
				c-0.678-0.026-1.035-0.073-1.255-0.397c0.787-0.652,1.218-1.63,1.377-2.776c0.481-0.167,0.922-0.203,1.398-0.562
				c0.677-0.625,0.542-1.255,0.802-1.519c0.496-0.746,1.774-1.314,2.304-2.34c0.317-0.733,0.288-1.697,0.498-2.312
				c0.237-0.783,0.619-1.306,0.731-2.107c0.033-0.29,0.052-0.575,0.052-0.856C91.966,117.514,90.689,115.315,88.667,114.352z
				 M79.759,115.024L79.759,115.024c0.003-0.008,0.007-0.016,0.01-0.023C79.766,115.009,79.763,115.016,79.759,115.024z
				 M79.792,114.939c0.024-0.08,0.022-0.137,0.018-0.179c-0.001,0.015-0.001,0.028,0.001,0.04
				C79.811,114.849,79.804,114.895,79.792,114.939z"/>
		</g>
		<g>
			<path d="M8.806,133.344c-0.813-0.008-1.586-0.195-2.308-0.191l0,0c-0.235,0-0.457,0.017-0.671,0.061l0,0l-0.26,0.056
				l-0.189-0.183c-0.429-0.511-0.388-1.066-0.416-1.385l0,0c-0.028-0.002-0.06-0.004-0.094-0.004l0,0
				c-0.268-0.004-0.659,0.092-1.093,0.096l0,0c-0.312,0.004-0.713-0.066-1.019-0.376l0,0l-0.119-0.121l-0.021-0.168
				c-0.01-0.073-0.015-0.144-0.015-0.214l0,0c0.038-0.593,0.283-0.889,0.415-1.065l0,0c-0.251-0.232-0.665-0.4-1.129-0.598l0,0
				c-0.541-0.215-1.295-0.678-1.289-1.58l0,0c-0.002-0.004-0.004-0.025-0.004-0.062l0,0c-0.002-0.827,0.574-1.322,1.046-1.626l0,0
				c0.144-0.094,0.287-0.183,0.421-0.27l0,0c-0.189,0.01-0.394,0.022-0.606,0.022l0,0c-0.382,0-0.823-0.041-1.23-0.31l0,0
				l-0.191-0.129l-0.029-0.225c0-0.006-0.002-0.019-0.004-0.072l0,0c-0.019-1.204,0.657-2.062,1.518-2.47l0,0
				c0.858-0.422,1.885-0.522,2.848-0.524l0,0c0.036,0,0.071,0,0.106,0l0,0c-0.054-0.168-0.156-0.429-0.195-0.756l0,0l-0.012-0.152
				l0.077-0.133c0.308-0.502,0.727-0.739,1.011-0.943l0,0c-0.167-0.062-0.434-0.184-0.576-0.549l0,0l-0.042-0.123l0.025-0.127
				c0.21-1.129,1.021-1.717,1.663-2.185l0,0c0.669-0.484,1.166-0.86,1.308-1.51l0,0c0.012-0.06,0.019-0.131,0.019-0.212l0,0
				c0.004-0.251-0.081-0.604-0.083-1.037l0,0c0-0.175,0.017-0.363,0.068-0.553l0,0c0.215-0.755,0.725-1.329,1.316-1.749l0,0
				c-0.497,0.062-1.047,0.189-1.639,0.194l0,0c-0.241,0-0.493-0.021-0.75-0.092l0,0c-1.465-0.479-2.675-2.372-3.796-2.611l0,0
				l-0.405-0.107l0.038-0.418c0.008-0.102,0.012-0.199,0.012-0.293l0,0c0.004-0.53-0.146-0.998-0.149-1.703l0,0
				c0-0.118,0.004-0.249,0.019-0.387l0,0l0.027-0.27l0.241-0.123c0.548-0.25,1.134-0.319,1.423-0.438l0,0
				c0.011-0.116,0.015-0.23,0.015-0.345l0,0c0.004-1.312-0.729-2.424-1.598-2.979l0,0l-0.208-0.135l-0.019-0.245
				c-0.004-0.044-0.008-0.09-0.008-0.144l0,0c-0.015-0.493,0.274-0.894,0.542-1.077l0,0c0.008-0.006,0.017-0.013,0.026-0.019l0,0
				c-0.172-0.108-0.362-0.288-0.431-0.59l0,0l-0.04-0.173l0.077-0.156c0.308-0.634,0.563-1.339,0.805-2.074l0,0l0.06-0.181
				l0.162-0.096c0.975-0.565,2.447-0.867,3.918-0.873l0,0c1.187,0.005,2.368,0.197,3.263,0.735l0,0
				c0.378-0.146,0.751-0.188,1.092-0.187l0,0c0.491,0,0.929,0.072,1.337,0.07l0,0c0.149,0,0.296-0.009,0.446-0.031l0,0
				c0.016-0.029,0.041-0.101,0.061-0.197l0,0c0.058-0.219,0.066-0.543,0.278-0.898l0,0l0.035-0.056l0.048-0.042
				c0.75-0.629,1.644-0.874,2.157-1.25l0,0c-0.435-0.133-1.014-0.193-1.579-0.268l0,0c-0.763-0.085-1.827-0.378-1.925-1.513l0,0
				c-0.004-0.044-0.006-0.09-0.006-0.144l0,0c0.012-0.971,0.782-1.42,1.312-1.74l0,0c0.544-0.316,0.948-0.588,1.061-0.936l0,0
				c-0.067-0.205-0.42-0.477-0.468-1.243l0,0l-0.002-0.01c0.004-0.021-0.008-0.036,0.027-0.165l0,0l0.033-0.098l0.066-0.074
				c0.779-0.842,1.655-1.227,1.927-1.989l0,0l0.093-0.246l0.258-0.058c1.661-0.372,2.839-1.409,4.428-1.669l0,0
				c0.077-0.013,0.154-0.017,0.231-0.017l0,0c0.274,0.002,0.503,0.045,0.646,0.043l0,0c0.066,0,0.108-0.008,0.118-0.01l0,0
				c0.075-0.005,0.354-0.252,0.62-0.554l0,0c0.289-0.286,0.561-0.661,1.112-0.769l0,0c0.079-0.013,0.16-0.021,0.243-0.021l0,0
				c0.941,0.027,1.592,0.694,2.181,1.265l0,0c0.563,0.592,1.141,1.135,1.32,1.135l0,0c0.008,0.002,0.038,0.006,0.085,0.006l0,0
				c0.752,0.029,3.174-1.095,4.23-1.313l0,0l0.158-0.029l0.144,0.066c1.864,0.959,2.091,3.601,3.041,4.785l0,0
				c0.518,0.751,1.428,1.215,1.455,2.526l0,0c0,0.067-0.003,0.136-0.008,0.205l0,0c1.247,0.7,1.807,2.246,1.814,3.707l0,0
				c-0.004,1.744-0.911,3.68-2.951,3.841l0,0c-0.588,1.506-1.698,2.6-3.262,3.137l0,0c0.422,0.944,0.204,1.966,0.425,2.795l0,0
				c0.056,0.472,0.742,0.892,0.954,1.811l0,0c0.031,0.181,0.042,0.361,0.042,0.54l0,0c-0.004,0.755-0.179,1.516-0.175,2.201l0,0
				c0,0.129,0.006,0.25,0.019,0.373l0,0c0.087,0.98,0.763,2.483,0.773,4.008l0,0c0,0.253-0.021,0.509-0.066,0.765l0,0
				c-0.285,1.365-1.287,2.438-1.422,3.432l0,0c-0.256,1.557-0.453,2.524-1.152,3.693l0,0c0.076,0.318,0.211,0.734,0.217,1.215l0,0
				c0,0.256-0.046,0.534-0.175,0.803l0,0l-0.064,0.137l-0.131,0.079c-0.437,0.262-0.904,0.333-1.324,0.331l0,0
				c-0.684-0.005-1.303-0.169-1.742-0.162l0,0c-0.075,0-0.142,0.004-0.21,0.017l0,0c-0.181-0.013-0.607,0.386-1.25,0.582l0,0
				c-0.569,0.143-1.116,0.164-1.615,0.164l0,0c-0.295,0-0.569-0.009-0.819-0.009l0,0c-0.497-0.002-0.894,0.038-1.156,0.169l0,0
				c-0.441,0.144-0.703,1.041-1.582,1.735l0,0c-0.486,0.322-1.015,0.399-1.337,0.613l0,0c-0.445,0.256-0.931,0.869-1.582,1.208l0,0
				c-0.618,0.274-1.173,0.21-1.435,0.359l0,0c-1.114,0.49-1.983,1.819-3.613,2.396l0,0c-0.994,0.327-1.908,0.312-2.731,0.593l0,0
				c-0.598,0.176-1.318,0.788-2.389,0.85l0,0l-0.012,0.007H8.806L8.806,133.344z M8.778,132.344
				c0.016-0.001,0.029-0.001,0.038-0.002l0,0c0,0,0.006,0.002,0.006,0l0,0c0.703,0.019,1.324-0.488,2.206-0.805l0,0
				c1.027-0.33,1.95-0.32,2.727-0.592l0,0c1.233-0.389,2.066-1.645,3.507-2.354l0,0c0.627-0.267,1.193-0.212,1.416-0.352l0,0
				c0.354-0.155,0.867-0.761,1.503-1.164l0,0c0.542-0.318,1.116-0.435,1.274-0.571l0,0c0.557-0.341,0.756-1.302,1.738-1.827l0,0
				c0.513-0.241,1.052-0.263,1.584-0.265l0,0c0.274,0,0.546,0.011,0.819,0.011l0,0c0.468,0,0.929-0.025,1.37-0.135l0,0
				c0.276-0.038,0.675-0.475,1.347-0.604l0,0c0.123-0.019,0.244-0.026,0.358-0.026l0,0c0.632,0.006,1.235,0.168,1.742,0.164l0,0
				c0.253-0.002,0.47-0.034,0.667-0.118l0,0c0.018-0.073,0.026-0.148,0.027-0.233l0,0c0.006-0.326-0.149-0.753-0.239-1.223l0,0
				l-0.033-0.19l0.104-0.162c0.69-1.11,0.842-1.849,1.117-3.495l0,0c0.262-1.407,1.276-2.492,1.426-3.45l0,0
				c0.035-0.189,0.05-0.385,0.05-0.584l0,0c0.011-1.229-0.627-2.665-0.767-3.902l0,0c-0.019-0.164-0.025-0.324-0.025-0.479l0,0
				c0.004-0.833,0.179-1.612,0.175-2.201l0,0c0-0.142-0.01-0.268-0.027-0.38l0,0c0.014-0.304-0.68-0.803-0.944-1.751l0,0
				c-0.264-1.361-0.048-2.467-0.59-2.973l0,0l-0.59-0.632l0.839-0.195c1.749-0.426,2.767-1.389,3.322-2.997l0,0l0.11-0.329
				l0.347-0.012c0.019,0,0.054-0.003,0.106-0.003l0,0c1.489-0.002,2.187-1.288,2.218-2.852l0,0c0.006-1.345-0.622-2.636-1.53-2.941
				l0,0l-0.397-0.147l0.077-0.414c0.031-0.162,0.043-0.297,0.043-0.409l0,0c0.025-0.692-0.505-0.952-1.26-1.932l0,0
				c-1.042-1.517-1.465-3.816-2.509-4.401l0,0c-0.927,0.229-3.084,1.271-4.259,1.298l0,0c-0.094,0-0.189-0.006-0.295-0.026l0,0
				c-0.763-0.206-1.239-0.856-1.817-1.408l0,0c-0.551-0.573-1.129-0.997-1.474-0.971l0,0c-0.023,0-0.052,0.002-0.089,0.009l0,0
				c-0.017-0.015-0.277,0.162-0.534,0.464l0,0c-0.279,0.282-0.551,0.648-1.062,0.829l0,0c-0.149,0.041-0.287,0.05-0.407,0.05l0,0
				c-0.277-0.002-0.507-0.046-0.646-0.044l0,0c-0.027,0-0.054,0.005-0.079,0.007l0,0c-1.139,0.147-2.33,1.103-4.112,1.593l0,0
				c-0.494,0.951-1.347,1.378-1.858,1.892l0,0c0.074,0.198,0.333,0.406,0.46,1.072l0,0l0.008,0.085l-0.021,0.087
				c-0.239,0.917-1.008,1.302-1.536,1.63l0,0c-0.578,0.348-0.842,0.565-0.827,0.882l0,0c0,0.013,0,0.033,0.002,0.062l0,0
				c0.021,0.367,0.262,0.461,1.075,0.604l0,0c0.749,0.123,1.734,0.123,2.526,0.694l0,0l0.347,0.26l-0.208,0.381
				c-0.716,1.183-2.068,1.319-2.65,1.846l0,0c-0.032,0.087-0.076,0.3-0.123,0.542l0,0c-0.059,0.272-0.193,0.751-0.713,0.934l0,0
				l-0.033,0.011l-0.04,0.006c-0.241,0.042-0.474,0.059-0.698,0.059l0,0c-0.511-0.002-0.954-0.073-1.337-0.071l0,0
				c-0.333,0-0.607,0.044-0.904,0.198l0,0l-0.276,0.147l-0.251-0.186c-0.613-0.463-1.748-0.713-2.923-0.708l0,0
				c-1.227-0.004-2.502,0.263-3.25,0.646l0,0c-0.195,0.582-0.405,1.157-0.653,1.707l0,0c0.002,0.001,0.005,0.002,0.008,0.003l0,0
				c0.146,0.071,0.522,0.179,0.701,0.626l0,0l0.116,0.32l-0.255,0.227c-0.269,0.229-0.518,0.33-0.641,0.431l0,0
				c-0.073,0.066-0.104,0.087-0.122,0.133l0,0c1.024,0.771,1.808,2.084,1.81,3.648l0,0c0.002,0.232-0.017,0.47-0.052,0.711l0,0
				l-0.029,0.188l-0.147,0.121c-0.517,0.388-1.111,0.444-1.497,0.551l0,0c-0.005,0.522,0.143,0.988,0.149,1.692l0,0
				c1.471,0.653,2.625,2.319,3.414,2.467l0,0c0.146,0.04,0.31,0.057,0.488,0.057l0,0c0.586,0.008,1.32-0.223,2.147-0.229l0,0
				c0.445-0.002,0.927,0.081,1.391,0.337l0,0l1.05,0.573l-1.147,0.343c-0.867,0.243-1.977,0.994-2.154,1.79l0,0
				c-0.022,0.087-0.033,0.185-0.033,0.293l0,0c-0.004,0.276,0.079,0.622,0.083,1.037l0,0c0,0.134-0.011,0.274-0.044,0.425l0,0
				c-0.245,1.091-1.062,1.642-1.694,2.105l0,0c-0.568,0.414-1.002,0.754-1.194,1.283l0,0c0.008,0.003,0.017,0.006,0.025,0.01l0,0
				c0.172,0.033,0.661,0.335,0.638,0.848l0,0c0,0.088-0.01,0.173-0.029,0.258l0,0l-0.027,0.131l-0.091,0.103
				c-0.414,0.424-0.828,0.625-1.029,0.844l0,0c0.059,0.181,0.185,0.475,0.201,0.856l0,0c0.002,0.202-0.058,0.445-0.214,0.643l0,0
				l-0.16,0.21l-0.262-0.013c-0.166-0.008-0.334-0.015-0.503-0.013l0,0c-0.883-0.004-1.79,0.11-2.401,0.42l0,0
				c-0.532,0.285-0.856,0.618-0.942,1.27l0,0c0.119,0.028,0.263,0.042,0.433,0.042l0,0c0.281,0,0.611-0.035,0.962-0.035l0,0
				c0.331,0,0.699,0.033,1.054,0.225l0,0l0.495,0.269l-0.329,0.461c-0.428,0.587-1.027,0.873-1.442,1.158l0,0
				c-0.435,0.302-0.599,0.472-0.601,0.794l0,0H1.241l0.354,0.009c0.017,0.376,0.167,0.459,0.699,0.721l0,0
				c0.493,0.229,1.235,0.437,1.713,1.146l0,0l0.108,0.166l-0.035,0.196c-0.173,0.613-0.404,0.773-0.466,0.934l0,0
				c0.041,0.008,0.094,0.013,0.163,0.014l0,0c0.262,0.004,0.657-0.091,1.093-0.094l0,0c0.227,0,0.48,0.031,0.728,0.156l0,0
				l0.164,0.083l0.071,0.173c0.153,0.416,0.145,0.822,0.183,1.063l0,0c0.166-0.017,0.327-0.022,0.484-0.022l0,0
				C7.358,132.154,8.134,132.337,8.778,132.344L8.778,132.344z"/>
		</g>
	</g>
	<g>
		<g>
			<path fill="#EE2329" d="M52.597,129.237c0-0.554,0-1.107,0-1.107c-1.108-1.108-2.77-3.877-4.985-2.769
				c-3.323,2.216,4.432,7.199,5.539,9.415c1.661-1.661,6.092-6.646,5.538-8.861c-1.108-5.539-5.538,2.769-6.646,4.431
				c1.662-1.662,3.322-3.877,5.538-4.984c0,1.66-1.661,4.984-3.323,5.537c-0.553-1.661,1.663-4.43,2.77-5.537
				c-0.554,2.216-2.77,4.431-4.431,5.537c0.554-1.661,2.215-3.321,3.877-4.983c-1.108,2.215-2.216,4.431-3.877,5.538
				c0-0.555-0.554-0.555-0.554-1.661c-1.109,2.769-3.324-1.662-3.877-2.771c0.554,0.556,1.661,1.108,1.661,2.216
				c-1.661,0.555-2.215-1.66-2.215-2.769c1.662,0,3.877,2.215,3.323,3.877c-1.107-1.108-1.107-1.662-1.661-2.769
				c1.107,0.553,2.215,1.66,2.77,2.769c-1.109-0.554-2.216-1.662-2.216-2.769c1.107-0.556,2.216,1.66,2.216,2.769
				c-0.554-0.554-1.109-1.662-1.109-2.216c0.555,1.107,3.323,7.2,4.431,3.323"/>
			<path fill="#EE2329" d="M52.603,129.237c0-0.044,0.155-1.561-0.006-1.732c-0.869-0.926-1.61-1.924-2.675-2.642
				c-1.834-1.237-3.135,0.312-3.135,2c0,1.575,0.905,2.692,1.932,3.831c0.828,0.916,1.747,1.752,2.631,2.612
				c0.381,0.371,0.75,0.752,1.107,1.145c0.327,0.359,0.538,1.106,0.924,0.715c2.332-2.364,5.888-5.911,5.351-9.572
				c-0.854-5.814-5.644,2.515-6.69,4.127c-0.172,0.265,0.206,1.039,0,1.25c1.75-1.797,3.312-3.748,5.538-4.984
				c0-0.409-0.001-0.818-0.001-1.228c-0.087,1.243-0.582,2.343-1.184,3.414c-0.266,0.474-2.001,2.782-2.218,1.699
				c0.001,0.388,0.002,0.776,0.003,1.164c0.034-1.942,1.568-3.723,2.847-5.05c0-0.417,0-0.833,0-1.25
				c-0.739,2.34-2.458,4.145-4.431,5.537c0,0.417,0,0.833,0,1.25c0.824-1.995,2.377-3.479,3.877-4.983c0-0.417,0-0.833,0-1.25
				c-0.844,1.681-1.683,3.337-2.942,4.749c-0.572,0.643-0.723,0.953-1.129,0.283c-0.288-0.474-0.159-1.557-0.565-0.739
				c-1.002,2.018-3.332-2.512-3.671-3.187c0,0.417,0,0.833,0,1.25c0.768,0.683,1.483,1.144,1.661,2.216c0-0.417,0-0.833,0-1.25
				c-1.665,0.312-2.149-1.385-2.214-2.746c0,0.409-0.001,0.818-0.001,1.228c1.75,0.199,3.27,1.633,3.408,3.412
				c0-0.417,0-0.833,0-1.25c-0.185,1.01-0.591-0.099-0.885-0.5c-0.383-0.523-0.589-1.22-0.861-1.804c0,0.417,0,0.833,0,1.25
				c1.198,0.695,2.073,1.571,2.77,2.769c0-0.417,0-0.833,0-1.25c-1.129-0.658-2.004-1.431-2.216-2.769c0,0.417,0,0.833,0,1.25
				c1.432-0.343,2.108,1.657,2.216,2.769c0-0.417,0-0.833,0-1.25c-0.557-0.661-0.972-1.354-1.109-2.216c0,0.417,0,0.833,0,1.25
				c0.641,1.299,3.221,6.873,4.431,3.323c0.128-0.376-0.126-0.88,0-1.25c-1.21,3.55-3.791-2.024-4.431-3.323
				c0.15,0.306-0.056,0.901,0,1.25c0.137,0.862,0.552,1.555,1.109,2.216c-0.15-0.179,0.025-0.993,0-1.25
				c-0.108-1.111-0.785-3.111-2.216-2.769c-0.049,0.012-0.02,1.127,0,1.25c0.212,1.338,1.087,2.11,2.216,2.769
				c-0.163-0.095,0.115-1.052,0-1.25c-0.696-1.197-1.572-2.073-2.77-2.769c0.15,0.087-0.092,1.053,0,1.25
				c0.213,0.459,0.412,0.923,0.623,1.384c0.202,0.441,0.931,1.973,1.123,0.92c0.045-0.249,0.007-0.54,0.006-0.791
				c-0.005-1.967-1.413-3.644-3.414-3.871c0.012,0.001-0.007,1.11-0.001,1.228c0.064,1.366,0.528,3.107,2.217,2.791
				c0.039-0.008,0.02-1.129,0-1.25c-0.178-1.072-0.893-1.533-1.661-2.216c0.191,0.17-0.127,0.997,0,1.25
				c0.492,0.981,2.279,4.905,3.671,3.187c0.523-0.646,0.187,0.155,0.565,0.739c0.446,0.688,0.487,0.319,1.129-0.283
				c1.336-1.253,2.136-3.142,2.942-4.749c0.136-0.271-0.197-1.053,0-1.25c-1.5,1.505-3.053,2.988-3.877,4.983
				c-0.091,0.219,0.163,1.136,0,1.25c1.972-1.393,3.692-3.197,4.431-5.537c0.085-0.27-0.177-1.066,0-1.25
				c-1.648,1.71-2.863,3.523-2.856,5.927c0,0.144-0.022,0.316,0.006,0.459c0.183,0.914,1.224-0.385,1.566-0.767
				c1.036-1.158,1.731-2.849,1.839-4.392c0.011-0.157-0.095-1.176-0.001-1.228c-2.225,1.236-3.788,3.188-5.538,4.984
				c0,0.417,0,0.833,0,1.25c1.046-1.612,5.836-9.941,6.69-4.127c0-0.409-0.001-0.818-0.001-1.228
				c-0.045,1.856-1.418,3.569-2.481,4.984c-0.63,0.84-1.322,1.634-2.023,2.414c-0.5,0.558-0.863,1.412-1.358,0.69
				c-1.703-2.481-5.617-4.257-6.076-7.467c0.001,0.388,0.002,0.776,0.003,1.164c0.02-1.456,1.519-1.854,2.702-1.499
				c1.301,0.39,2.217,1.914,3.098,2.852c-0.002-0.208-0.004-0.417-0.006-0.625c0,0.369,0,0.738,0,1.107
				C52.59,129.944,52.603,129.944,52.603,129.237L52.603,129.237z"/>
		</g>
	</g>
	<g>
		<g>
			<path fill="#EE2329" d="M123.837,90.961c-0.055-0.316-0.11-0.633-0.11-0.633c-0.74-0.523-1.96-1.941-3.116-1.091
				c-1.68,1.589,3.234,3.674,4.085,4.829c0.785-1.111,2.825-4.391,2.291-5.601c-1.175-3.054-2.888,2.124-3.359,3.181
				c0.787-1.111,1.518-2.539,2.673-3.388c0.162,0.948-0.459,3.009-1.353,3.485c-0.479-0.893,0.514-2.691,1.037-3.431
				c-0.099,1.317-1.146,2.8-1.984,3.595c0.152-1.003,0.937-2.113,1.724-3.225c-0.416,1.373-0.83,2.746-1.67,3.541
				c-0.054-0.316-0.37-0.263-0.48-0.895c-0.36,1.69-2.059-0.622-2.484-1.201c0.37,0.262,1.058,0.471,1.165,1.104
				c-0.893,0.478-1.426-0.732-1.534-1.363c0.948-0.165,2.43,0.884,2.276,1.887c-0.742-0.523-0.796-0.84-1.22-1.418
				c0.687,0.208,1.427,0.732,1.851,1.309c-0.686-0.206-1.427-0.73-1.535-1.363c0.578-0.424,1.429,0.732,1.535,1.363
				c-0.369-0.262-0.794-0.84-0.849-1.155c0.425,0.579,2.604,3.782,2.855,1.462"/>
			<path fill="#EE2329" d="M123.837,90.336c-0.139-0.798-0.596-1.049-1.246-1.524c-0.64-0.468-1.518-0.701-2.119-0.049
				c-0.355,0.386-0.281,1.403-0.207,1.875c0.187,1.18,1.654,1.98,2.545,2.591c0.525,0.359,1.058,0.707,1.547,1.114
				c0.2,0.167,0.264,0.454,0.447,0.191c0.189-0.271,0.365-0.552,0.541-0.831c1.044-1.662,2.392-4.091,1.532-6.117
				c-1.044-2.463-2.931,2.694-3.251,3.436c-0.139,0.321,0.189,0.975,0,1.25c0.446-0.647,0.862-1.313,1.315-1.956
				c0.231-0.327,0.495-0.623,0.767-0.917c0.16-0.173,0.562-0.789,0.614-0.295c-0.002-0.209-0.004-0.417-0.006-0.625
				c0,0.082,0,0.164,0,0.247c0.002-0.208,0.004-0.417,0.006-0.625c-0.057,0.715-0.246,1.374-0.545,2.024
				c-0.207,0.448-0.811,1.451-0.954,0.525c0.001,0.355,0.003,0.711,0.004,1.066c0.012-0.986,0.619-1.987,1.157-2.778
				c0-0.417,0-0.833,0-1.25c-0.192,1.407-0.997,2.605-1.984,3.595c0,0.417,0,0.833,0,1.25c0.264-1.219,1.017-2.224,1.724-3.225
				c0-0.417,0-0.833,0-1.25c-0.317,1.042-0.633,2.069-1.214,2.999c-0.264,0.423-0.319,0.615-0.617,0.272
				c-0.21-0.242-0.246-0.874-0.397-0.367c-0.373,1.251-2.148-1.107-2.407-1.459c0,0.417,0,0.833,0,1.25
				c0.506,0.314,0.959,0.508,1.165,1.104c0-0.417,0-0.833,0-1.25c-0.932,0.327-1.357-0.583-1.534-1.363c0,0.417,0,0.833,0,1.25
				c1.019-0.06,2.026,0.611,2.279,1.613c-0.001-0.355-0.003-0.712-0.004-1.067c-0.001,0.09-0.688-0.549-0.728-0.598
				c-0.183-0.223-0.327-0.492-0.491-0.729c0,0.417,0,0.833,0,1.25c0.75,0.28,1.336,0.694,1.851,1.309c0-0.417,0-0.833,0-1.25
				c-0.709-0.265-1.284-0.62-1.535-1.363c0,0.417,0,0.833,0,1.25c0.784-0.333,1.366,0.739,1.535,1.363c0-0.417,0-0.833,0-1.25
				c-0.381-0.323-0.686-0.678-0.849-1.155c0,0.417,0,0.833,0,1.25c0.492,0.68,2.513,3.606,2.855,1.462
				c0.065-0.407-0.064-0.846,0-1.25c-0.343,2.145-2.363-0.782-2.855-1.462c0.185,0.254-0.107,0.936,0,1.25
				c0.163,0.478,0.467,0.832,0.849,1.155c-0.158-0.134,0.063-1.017,0-1.25c-0.169-0.624-0.751-1.696-1.535-1.363
				c-0.063,0.027-0.04,1.133,0,1.25c0.251,0.743,0.826,1.099,1.535,1.363c-0.137-0.052,0.125-1.102,0-1.25
				c-0.514-0.614-1.1-1.028-1.851-1.309c0.128,0.048-0.107,1.095,0,1.25c0.377,0.546,0.688,1.006,1.22,1.418
				c-0.006-0.005,0.004-0.19,0.004-0.183c0.004-0.407,0.099-0.945-0.001-1.341c-0.253-1.002-1.261-1.673-2.279-1.613
				c-0.009,0.001-0.026,1.133,0,1.25c0.177,0.78,0.602,1.69,1.534,1.363c0.053-0.019,0.039-1.137,0-1.25
				c-0.206-0.596-0.659-0.789-1.165-1.104c0.181,0.112-0.147,1.051,0,1.25c0.377,0.511,1.783,2.578,2.407,1.459
				c0.235-0.421,0.123,0.071,0.397,0.367c0.322,0.349,0.309,0.135,0.617-0.272c0.64-0.846,0.911-2.003,1.214-2.999
				c0.096-0.316-0.18-0.995,0-1.25c-0.707,1.001-1.459,2.006-1.724,3.225c-0.055,0.252,0.161,1.089,0,1.25
				c0.987-0.989,1.792-2.188,1.984-3.595c0.041-0.299-0.159-1.017,0-1.25c-0.682,1.003-1.159,2.051-1.167,3.271
				c-0.001,0.303-0.041,0.64,0.005,0.94c0.164,1.054,0.891-0.389,1.083-0.805c0.434-0.941,0.428-1.927,0.422-2.934
				c0-0.102,0.005-0.207-0.005-0.309c-0.053-0.505-0.704,0.393-0.883,0.586c-0.711,0.768-1.222,1.724-1.812,2.582
				c0,0.417,0,0.833,0,1.25c0.47-1.089,0.855-2.206,1.474-3.226c0.237-0.391,0.582-0.887,1.083-0.905
				c0.511-0.019,0.88,0.947,0.885,1.337c0.001-0.355,0.003-0.711,0.004-1.067c-0.098,1.067-0.609,2.054-1.108,2.984
				c-0.277,0.518-0.588,1.018-0.906,1.511c-0.323,0.501-0.277,0.573-0.7,0.188c-1.172-1.066-3.815-1.951-4.093-3.705
				c0.001,0.389,0.002,0.776,0.003,1.165c0.02-0.938,1.102-1.045,1.781-0.801c0.385,0.138,0.726,0.44,1.041,0.69
				c0.508,0.404,0.634,0.495,0.747,1.144C123.768,91.184,123.908,90.742,123.837,90.336L123.837,90.336z"/>
		</g>
	</g>
	<g>
		<g>
			<path fill="#EE2329" d="M202.311,88.398c0.064-0.314,0.128-0.628,0.128-0.628c-0.499-0.758-1.12-2.523-2.505-2.15
				c-2.145,0.869,1.676,4.599,2.046,5.984c1.135-0.748,4.229-3.062,4.173-4.382c0.018-3.271-3.464,0.926-4.286,1.739
				c1.137-0.749,2.337-1.812,3.723-2.182c-0.194,0.941-1.522,2.634-2.529,2.753c-0.121-1.006,1.458-2.318,2.216-2.817
				c-0.572,1.191-2.088,2.19-3.158,2.625c0.507-0.877,1.643-1.627,2.779-2.376c-0.887,1.128-1.773,2.256-2.844,2.69
				c0.064-0.314-0.25-0.38-0.121-1.008c-0.951,1.443-1.693-1.328-1.877-2.021c0.249,0.378,0.812,0.822,0.683,1.451
				c-1.005,0.119-1.062-1.201-0.933-1.829c0.942,0.192,1.941,1.707,1.434,2.585c-0.501-0.756-0.436-1.072-0.62-1.764
				c0.563,0.442,1.063,1.201,1.248,1.893c-0.563-0.443-1.063-1.201-0.935-1.829c0.692-0.184,1.064,1.202,0.935,1.829
				c-0.249-0.379-0.435-1.07-0.37-1.385c0.186,0.693,1.047,4.471,2.127,2.4"/>
			<path fill="#EE2329" d="M202.311,89.023c0.188-0.921,0.24-1.649-0.216-2.473c-0.384-0.692-0.802-1.387-1.612-1.594
				c-0.521-0.133-1.156,0.268-1.189,0.816c-0.051,0.816-0.066,1.616,0.248,2.382c0.566,1.378,1.674,2.46,2.331,3.788
				c0.165,0.333,0.116,0.282,0.444,0.058c0.293-0.202,0.577-0.416,0.861-0.631c0.752-0.571,1.464-1.197,2.105-1.892
				c0.831-0.9,0.893-1.649,0.872-2.796c-0.055-3.208-3.463,0.817-4.289,1.654c-0.185,0.187,0.196,1.117,0,1.25
				c1.202-0.815,2.316-1.74,3.723-2.182c0-0.417,0-0.833,0-1.25c-0.321,1.146-1.323,2.477-2.529,2.753
				c0.002,0.313,0.003,0.627,0.005,0.94c0.001-0.079,0.002-0.158,0.002-0.237c-0.002,0.104-0.004,0.207-0.006,0.31
				c0.251-1.125,1.307-1.958,2.215-2.58c0-0.417,0-0.833,0-1.25c-0.684,1.24-1.882,2.069-3.158,2.625c0,0.417,0,0.833,0,1.25
				c0.689-1.038,1.758-1.7,2.779-2.376c0-0.417,0-0.833,0-1.25c-0.816,1.035-1.627,2.11-2.844,2.69
				c0.002,0.153,0.004,0.306,0.006,0.459c0-0.439-0.088-0.728-0.158-1.151c0,0.417,0,0.834,0,1.25
				c0.01-0.104,0.021-0.21,0.031-0.315c0.025-0.271-0.152-1.053,0-1.25c-1.018,1.317-1.686-1.308-1.877-2.021
				c0,0.417,0,0.833,0,1.25c0.274,0.361,0.529,0.664,0.686,1.095c-0.002-0.313-0.004-0.627-0.006-0.94
				c-0.001,0.119-0.002,0.237-0.002,0.356c0.002-0.104,0.003-0.206,0.005-0.31c-0.391-0.008-0.575-0.09-0.8-0.411
				c-0.074-0.148-0.125-0.305-0.15-0.469c-0.078,0.26,0.014,0.388,0.275,0.385c0.775,0.253,1.246,1.228,1.312,1.971
				c0-0.417,0-0.833,0-1.25c-0.096,0.765-0.245,0.399-0.479-0.109c-0.158-0.341-0.192-0.761-0.278-1.124c0,0.417,0,0.833,0,1.25
				c0.598,0.534,0.993,1.133,1.248,1.893c0-0.417,0-0.833,0-1.25c-0.484-0.435-0.806-0.865-0.949-1.507
				c0.001,0.41,0.001,0.819,0.001,1.229c0.032-0.693,0.565-0.077,0.68,0.083c0.219,0.31,0.282,0.788,0.289,1.151
				c0.002-0.388,0.002-0.776,0.004-1.165c-0.061,0.524-0.375-0.743-0.404-0.947c0,0.409,0,0.818,0.002,1.228
				c0.008-0.198,0.225,0.607,0.267,0.753c0.126,0.438,0.28,0.863,0.47,1.277c0.377,0.828,0.91,1,1.398,0.164
				c0.185-0.314-0.179-0.943,0-1.25c-1.096,1.877-1.916-1.592-2.127-2.4c0,0.008-0.001,0.015-0.002,0.022
				c-0.019,0.424-0.018,0.849-0.013,1.272c0.003,0.27,0.058,0.518,0.128,0.779c0.07,0.264,0.274,0.828,0.284,0.267
				c0.013-0.764,0.207-2.846-0.962-2.785c0,0.008-0.001,0.015-0.002,0.022c-0.057,1.238-0.079,2.145,0.937,3.057
				c-0.172-0.154,0.083-1.001,0-1.25c-0.255-0.76-0.65-1.358-1.248-1.893c0.157,0.14-0.056,1.013,0,1.25
				c0.152,0.646,0.274,1.188,0.62,1.764c-0.006-0.01,0.142-0.686,0.143-0.84c0.006-0.901-0.016-1.593-0.601-2.354
				c-0.167-0.219-0.971-0.959-1.01-0.411c-0.024,0.335-0.022,0.669-0.021,1.005c0.002,0.776-0.041,1.825,0.987,1.845
				c0.004,0,0.005-0.305,0.005-0.31c0.008-1.07-0.004-1.492-0.688-2.392c0.176,0.232-0.082,0.948,0,1.25
				c0.191,0.714,0.859,3.339,1.877,2.021c0-0.417,0-0.833,0-1.25c-0.067,0.695-0.115,1.431,0.121,2.093
				c-0.002-0.153-0.004-0.306-0.006-0.459c0,0.055,0,0.11,0,0.165c0,0.028,0.029,0.448,0.006,0.459
				c1.217-0.58,2.027-1.655,2.844-2.69c0.16-0.202-0.189-1.125,0-1.25c-1.021,0.676-2.09,1.338-2.779,2.376
				c-0.111,0.167,0.141,1.188,0,1.25c1.276-0.556,2.475-1.385,3.158-2.625c0.119-0.218-0.176-1.13,0-1.25
				c-1.113,0.763-2.215,1.703-2.221,3.127c-0.001,0.069,0.028,0.935,0.005,0.94c1.206-0.276,2.208-1.607,2.529-2.753
				c0.041-0.146-0.075-1.227,0-1.25c-1.406,0.441-2.521,1.366-3.723,2.182c0,0.417,0,0.833,0,1.25
				c0.944-0.957,2.192-2.844,3.645-2.969c0.317-0.027,0.474,0.265,0.563,0.515c0.196,0.54,0.154-0.513-0.049,0.026
				c-0.086,0.228-0.243,0.433-0.381,0.629c-0.697,0.993-1.743,1.782-2.699,2.508c-0.193,0.146-0.926,0.806-1.01,0.547
				c-0.123-0.377-0.382-0.726-0.596-1.055c-0.576-0.885-1.213-1.725-1.697-2.666c-0.105-0.204-0.185-0.417-0.26-0.633
				c-0.218-0.631-0.204,0.714,0.008,0.206c0.178-0.427,0.697-0.504,1.092-0.488c0.995,0.039,1.525,1.49,1.956,2.188
				c0-0.417,0-0.833,0-1.25c-0.042,0.209-0.085,0.419-0.128,0.628C202.229,88.175,202.392,88.625,202.311,89.023L202.311,89.023z"/>
		</g>
	</g>
	<g>
		<g>
			<path fill="#EE2329" d="M290.016,100.537c-0.031-0.32-0.062-0.639-0.062-0.639c-0.7-0.577-1.814-2.081-3.028-1.317
				c-1.792,1.463,2.956,3.902,3.718,5.117c0.865-1.05,3.141-4.172,2.697-5.417c-0.948-3.132-3.037,1.905-3.583,2.925
				c0.865-1.051,1.699-2.421,2.913-3.182c0.093,0.957-0.678,2.967-1.605,3.375c-0.411-0.924,0.711-2.645,1.288-3.344
				c-0.196,1.308-1.35,2.707-2.246,3.438c0.228-0.987,1.092-2.039,1.957-3.088c-0.516,1.338-1.03,2.678-1.926,3.408
				c-0.031-0.32-0.35-0.289-0.412-0.926c-0.484,1.658-2.009-0.772-2.389-1.381c0.35,0.289,1.019,0.545,1.08,1.185
				c-0.926,0.412-1.369-0.834-1.432-1.473c0.959-0.093,2.36,1.062,2.133,2.05c-0.701-0.577-0.732-0.896-1.111-1.504
				c0.669,0.258,1.369,0.834,1.75,1.441c-0.67-0.257-1.371-0.834-1.433-1.473c0.608-0.38,1.371,0.834,1.433,1.473
				c-0.35-0.287-0.731-0.896-0.763-1.215c0.382,0.607,2.317,3.963,2.739,1.668"/>
			<path fill="#EE2329" d="M290.016,99.912c-0.078-0.807-0.516-1.09-1.13-1.611c-0.604-0.514-1.462-0.812-2.109-0.205
				c-0.411,0.387-0.293,1.359-0.252,1.859c0.094,1.115,1.344,1.96,2.136,2.601c0.514,0.416,1.041,0.814,1.531,1.259
				c0.17,0.154,0.32,0.322,0.452,0.509c-0.016-0.021,0.52-0.664,0.558-0.715c1.245-1.651,2.681-3.765,2.14-5.952
				c-0.758-3.062-3.158,2.108-3.583,2.925c-0.155,0.299,0.199,1.002,0,1.25c0.407-0.509,0.796-1.031,1.199-1.544
				c0.111-0.142,1.712-1.681,1.719-1.422c0.001-0.409,0.001-0.818,0.001-1.228c-0.062,0.754-0.304,1.438-0.65,2.106
				c-0.223,0.428-0.972,1.535-1.049,0.554c0,0.417,0,0.834,0,1.25c0.093-1.075,0.719-2.04,1.376-2.867c0-0.417,0-0.833,0-1.25
				c-0.296,1.39-1.187,2.525-2.246,3.438c0,0.417,0,0.833,0,1.25c0.364-1.195,1.176-2.138,1.957-3.088c0-0.417,0-0.833,0-1.25
				c-0.394,1.016-0.784,2.018-1.431,2.901c-0.295,0.402-0.363,0.59-0.636,0.226c-0.192-0.257-0.179-0.887-0.367-0.394
				c-0.465,1.22-2.061-1.262-2.293-1.632c0,0.417,0,0.833,0,1.25c0.481,0.351,0.918,0.576,1.08,1.185c0-0.417,0-0.833,0-1.25
				c-0.948,0.274-1.317-0.691-1.432-1.473c0,0.417,0,0.833,0,1.25c1.021,0.018,1.978,0.759,2.156,1.777c0-0.417,0-0.833,0-1.25
				c-0.051,0.592-0.347-0.024-0.539-0.239c-0.251-0.28-0.407-0.671-0.596-0.992c0,0.417,0,0.833,0,1.25
				c0.729,0.335,1.282,0.79,1.75,1.441c0-0.417,0-0.833,0-1.25c-0.688-0.316-1.236-0.713-1.433-1.473c0,0.417,0,0.833,0,1.25
				c0.807-0.274,1.309,0.837,1.433,1.473c0-0.417,0-0.833,0-1.25c-0.358-0.35-0.636-0.726-0.763-1.215c0,0.417,0,0.833,0,1.25
				c0.441,0.712,2.24,3.78,2.739,1.668c0.094-0.396-0.093-0.857,0-1.25c-0.499,2.112-2.298-0.956-2.739-1.668
				c0.172,0.277-0.086,0.919,0,1.25c0.127,0.489,0.404,0.865,0.763,1.215c-0.157-0.153,0.048-1.005,0-1.25
				c-0.124-0.636-0.626-1.747-1.433-1.473c-0.058,0.02-0.031,1.13,0,1.25c0.196,0.76,0.744,1.156,1.433,1.473
				c-0.149-0.069,0.122-1.08,0-1.25c-0.468-0.651-1.021-1.106-1.75-1.441c0.14,0.063-0.102,1.076,0,1.25
				c0.147,0.253,0.288,0.51,0.435,0.764c0.141,0.243,0.647,1.085,0.7,0.468c0.022-0.261,0.007-0.53,0.006-0.791
				c-0.003-1.217-0.894-2.215-2.162-2.236c0,0-0.018,1.129,0,1.25c0.114,0.781,0.483,1.747,1.432,1.473
				c0.049-0.015,0.031-1.132,0-1.25c-0.162-0.608-0.599-0.834-1.08-1.185c0.188,0.137-0.14,1.026,0,1.25
				c0.338,0.538,1.587,2.701,2.293,1.632c0.265-0.401,0.116,0.079,0.367,0.394c0.296,0.372,0.298,0.158,0.636-0.226
				c0.7-0.797,1.055-1.931,1.431-2.901c0.115-0.299-0.189-1.02,0-1.25c-0.781,0.95-1.593,1.893-1.957,3.088
				c-0.073,0.239,0.165,1.108,0,1.25c1.06-0.912,1.95-2.048,2.246-3.438c0.062-0.288-0.169-1.037,0-1.25
				c-1.08,1.359-1.491,2.676-1.356,4.367c0.05,0.632,0.922-0.629,1.029-0.804c0.338-0.553,0.521-1.205,0.629-1.838
				c0.094-0.56,0.032-1.17,0.018-1.734c-0.001-0.008-0.002-0.015-0.002-0.022c-1.213,0.836-2.005,2.049-2.913,3.182
				c0,0.417,0,0.833,0,1.25c0.623-1.198,1.128-2.498,2.042-3.515c0.391-0.432,0.859-0.582,1.246-0.086
				c0.082,0.128,0.15,0.263,0.203,0.405c0.318,0.728,0.208-0.615,0.038,0.058c-0.118,0.465-0.353,0.904-0.57,1.327
				c-0.466,0.899-1.063,1.737-1.672,2.545c-0.249,0.329-0.296,0.615-0.589,0.267c-0.223-0.267-0.509-0.487-0.774-0.709
				c-1.017-0.847-3.034-1.941-3.157-3.418c0,0.417,0,0.833,0,1.25c0.078-0.816,0.857-1.056,1.57-0.875
				c0.484,0.122,0.908,0.561,1.262,0.887c0.478,0.44,0.596,0.539,0.659,1.195C289.976,100.75,290.056,100.325,290.016,99.912
				L290.016,99.912z"/>
		</g>
	</g>
	<g>
		<g>
			<g>
				<path d="M575.42,72.99c-0.248-0.123-0.354-0.425-0.232-0.671l0,0c2.361-4.779,2.635-10.938,7.568-14.645l0,0l0.156-0.119
					l0.199,0.023c1.555,0.178,3.066,0.873,4.465,1.505l0,0c0.012-0.018,0.025-0.039,0.041-0.062l0,0
					c0.096-0.141,0.287-0.5,0.75-0.602l0,0l0.242-0.05l0.186,0.16c0.652,0.555,1.184,0.733,1.682,0.735l0,0
					c0.928,0.018,1.947-0.748,3.027-1.671l0,0c0.973-0.808,1.986-1.722,3.234-2.033l0,0c-0.008-0.208-0.027-0.441-0.027-0.689l0,0
					c-0.006-0.482,0.084-1.106,0.594-1.571l0,0l0.066-0.062l0.084-0.033c0.258-0.106,0.52-0.141,0.76-0.141l0,0
					c0.545,0.006,1.006,0.143,1.346,0.136l0,0c0.199-0.003,0.338-0.028,0.48-0.115l0,0c0.336-0.723,0.932-1.019,1.174-1.328l0,0
					c-0.059-0.358-0.086-0.701-0.088-1.025l0,0c-0.006-2.325,1.473-3.678,3.037-4.739l0,0c1.582-1.075,3.312-2.001,4.254-3.455l0,0
					l0.137-0.211l0.252-0.015c0.586-0.047,0.83-0.27,1.125-0.695l0,0c0.283-0.422,0.502-1.033,0.857-1.614l0,0l0.057-0.089
					l0.09-0.062c0.447-0.302,0.934-0.41,1.381-0.408l0,0c0.898,0.016,1.688,0.357,2.326,0.422l0,0c0.547-0.621,1.332-0.91,2.1-0.908
					l0,0c0.633,0,1.271,0.191,1.803,0.571l0,0l0.047,0.034l0.039,0.045c0.314,0.355,0.418,0.791,0.414,1.154l0,0
					c-0.01,0.583-0.186,1.068-0.176,1.421l0,0c0,0.109,0.012,0.202,0.041,0.29l0,0c0.027,0.022,0.062,0.05,0.105,0.084l0,0
					c0.76-0.059,1.662,0.012,2.373-0.1l0,0c0.809-0.17,1.129-0.309,1.184-1.033l0,0l0.004-0.119l0.057-0.104
					c0.393-0.708,0.797-1.484,1.459-2.136l0,0l0.115-0.114l0.162-0.023c1.303-0.157,1.738-1.468,3.029-2.565l0,0
					c0.215-0.172,0.529-0.138,0.703,0.079l0,0c0.174,0.215,0.137,0.529-0.078,0.702l0,0c-0.975,0.722-1.51,2.333-3.332,2.738l0,0
					c-0.443,0.469-0.777,1.063-1.125,1.698l0,0c-0.082,1.22-1.127,1.774-2.029,1.866l0,0c-0.957,0.139-2.014,0.041-2.629,0.126l0,0
					l-0.26,0.034l-0.174-0.193c-0.033-0.047-0.174-0.128-0.357-0.314l0,0l-0.055-0.062l-0.035-0.072
					c-0.119-0.264-0.158-0.533-0.158-0.78l0,0c0.008-0.593,0.186-1.085,0.176-1.421l0,0c-0.006-0.197-0.031-0.318-0.137-0.459l0,0
					c-0.34-0.227-0.758-0.349-1.166-0.347l0,0c-0.588,0.002-1.125,0.235-1.453,0.706l0,0l-0.15,0.213h-0.26
					c-1.006-0.018-1.877-0.449-2.562-0.432l0,0c-0.27,0.002-0.498,0.049-0.738,0.186l0,0c-0.256,0.438-0.467,1.009-0.811,1.539l0,0
					c-0.324,0.515-0.867,1.002-1.65,1.119l0,0c-1.158,1.615-2.945,2.532-4.389,3.531l0,0c-1.518,1.056-2.594,2.063-2.602,3.914l0,0
					c0,0.312,0.033,0.654,0.104,1.027l0,0l0.033,0.174l-0.084,0.157c-0.504,0.811-1.186,1.06-1.26,1.475l0,0l-0.047,0.146
					l-0.119,0.096c-0.379,0.304-0.82,0.397-1.193,0.394l0,0c-0.539-0.007-0.998-0.143-1.346-0.137l0,0
					c-0.109,0.002-0.207,0.013-0.295,0.037l0,0c-0.164,0.188-0.203,0.411-0.209,0.771l0,0c0,0.257,0.031,0.558,0.031,0.885l0,0
					c0,0.076,0,0.161-0.006,0.251l0,0l-0.027,0.415l-0.412,0.049c-1.008,0.102-2.064,0.965-3.148,1.889l0,0
					c-1.088,0.901-2.221,1.888-3.672,1.905l0,0c-0.658,0.002-1.338-0.227-2.008-0.718l0,0c-0.006,0.007-0.01,0.014-0.014,0.021l0,0
					c-0.096,0.15-0.332,0.527-0.816,0.571l0,0l-0.135,0.011l-0.117-0.053c-1.398-0.637-2.846-1.307-4.193-1.5l0,0
					c-4.352,3.334-4.693,9.143-7.105,14.161l0,0h0.002c-0.088,0.178-0.268,0.283-0.453,0.283l0,0
					C575.564,73.041,575.49,73.023,575.42,72.99L575.42,72.99z"/>
			</g>
			<g>
				<path d="M601.875,92.557c-0.414-0.051-0.895-0.072-1.412-0.072l0,0c-1.178,0-2.551,0.1-3.895,0.1l0,0
					c-2.367-0.002-4.85-0.295-5.838-2.432l0,0c-0.021-0.016-0.043-0.029-0.061-0.043l0,0c-0.186-0.062-0.424-0.096-0.695-0.143l0,0
					l-0.314-0.059l-0.078-0.309c-0.146-0.48-0.336-0.568-0.791-0.754l0,0c-0.439-0.166-1.094-0.279-1.662-0.797l0,0
					c-1.561-1.543-1.92-3.707-3.982-3.863l0,0c-0.262,0.018-0.543,0.037-0.834,0.037l0,0c-0.707,0.002-1.541-0.119-2.166-0.779l0,0
					l-0.051-0.055l-0.035-0.072c-0.057-0.121-0.115-0.246-0.152-0.402l0,0l-0.027-0.123l0.031-0.119
					c0.102-0.363,0.166-0.756,0.166-1.125l0,0c-0.002-0.521-0.123-0.967-0.414-1.309l0,0c-1.764-0.443-2.283-1.957-2.578-3.273l0,0
					c-0.328-1.406-0.576-2.73-1.615-3.445l0,0l-0.188-0.129l-0.023-0.225c-0.01-0.092-0.031-0.15-0.074-0.252l0,0
					c-0.117-0.251-0.004-0.546,0.248-0.659l0,0c0.25-0.117,0.547-0.004,0.662,0.248l0,0c0.039,0.088,0.084,0.199,0.117,0.327l0,0
					c1.309,1.045,1.529,2.635,1.846,3.9l0,0c0.35,1.373,0.645,2.27,1.973,2.568l0,0l0.141,0.029l0.105,0.104
					c0.602,0.592,0.801,1.381,0.799,2.115l0,0c0,0.428-0.062,0.85-0.16,1.238l0,0c0.002,0.008,0.006,0.014,0.01,0.021l0,0
					c0.334,0.32,0.799,0.414,1.387,0.416l0,0c0.26,0,0.533-0.018,0.805-0.037l0,0l0.045-0.002l0.033,0.002
					c2.893,0.305,3.373,3.082,4.611,4.129l0,0c0.303,0.289,0.77,0.398,1.322,0.592l0,0c0.467,0.148,1.037,0.477,1.314,1.125l0,0
					c0.199,0.033,0.418,0.078,0.648,0.166l0,0l0.068,0.027l0.059,0.045c0.062,0.053,0.068,0.053,0.068,0.053l0,0l0.215,0.076
					l0.084,0.215c0.588,1.596,2.559,1.973,4.982,1.971l0,0c1.297,0,2.664-0.098,3.895-0.098l0,0c0.543,0,1.059,0.018,1.537,0.078
					l0,0c0.75,0.094,1.547,0.127,2.375,0.127l0,0c2.006,0,4.199-0.201,6.434-0.201l0,0c0.471,0,0.941,0.01,1.414,0.031l0,0
					c0.379-0.127,0.693-0.475,1.078-0.918l0,0c0.271-0.307,0.602-0.67,1.062-0.895l0,0c-0.432-0.777-0.793-1.783-0.801-2.748l0,0
					c-0.023-0.82,0.346-1.721,1.246-2.109l0,0c1.258-2.082,3.861-2.686,6.254-2.689l0,0c1.061,0,2.096,0.123,3.002,0.316l0,0
					c0.357-0.293,0.799-0.889,1.691-0.934l0,0l0.082-0.002l0.078,0.025c0.564,0.186,1.391,0.434,1.961,0.43l0,0
					c0.58-0.076,0.635-0.035,0.688-0.539l0,0c0-0.105-0.016-0.238-0.047-0.4l0,0l-0.021-0.104l0.023-0.104
					c0.359-1.832,1.408-2.939,2.9-2.91l0,0c0.385,0,0.791,0.064,1.215,0.18l0,0c0.77,0.27,1.186,0.764,1.383,0.699l0,0
					c0.059-0.002,0.117-0.01,0.23-0.074l0,0l0.246-0.148l0.252,0.143c0.061,0.033,0.109,0.061,0.176,0.092l0,0l0.104,0.049
					l0.072,0.094c0.26,0.396,0.25,0.742,0.252,0.904l0,0c0.158-0.012,0.318-0.02,0.482-0.02l0,0
					c0.555-0.012,1.219,0.129,1.715,0.652l0,0c0.006,0,0.01,0,0.016,0l0,0c1.32-0.791,2.574-1.188,3.555-1.988l0,0
					c0.033-0.039,0.047-0.066,0.051-0.27l0,0c0-0.061,0.002-0.117,0.002-0.166l0,0c-0.012-0.252,0.037-0.736,0.438-1.053l0,0
					l0.051-0.039l0.055-0.025c0.762-0.26,1.129-0.158,1.146-0.322l0,0l0.18-0.285l0.332,0.061c0.262,0.049,0.498,0.072,0.707,0.072
					l0,0c1.082-0.021,1.533-0.523,2.014-1.445l0,0c0.455-0.918,0.748-2.178,1.314-3.296l0,0c0.553-1.088,0.818-1.838,0.967-2.736
					l0,0l0.059-0.342l0.338-0.066c1.699-0.318,3.82-1.653,5.953-1.673l0,0c1.094-0.01,2.215,0.413,3.113,1.492l0,0
					c0.08,0.026,0.17,0.038,0.273,0.04l0,0c0.197,0,0.445-0.052,0.719-0.107l0,0l0.236-0.049l0.186,0.154
					c0.648,0.537,1.26,0.712,1.924,0.719l0,0c1.641,0.028,3.533-1.293,5.51-1.556l0,0c0.287-0.238,0.596-0.381,0.926-0.381l0,0
					c0.754,0.039,1.086,0.59,1.41,0.935l0,0c0.326,0.39,0.59,0.604,0.799,0.587l0,0c0.072,0,0.16-0.015,0.277-0.064l0,0l0.207-0.09
					l0.205,0.099c1.412,0.754,1.459,2.311,2.078,2.958l0,0c0.141,0.09,0.297,0.176,0.465,0.26l0,0l0.17,0.088l0.068,0.182
					c0.16,0.484,0.236,0.831,0.396,0.981l0,0c0.252,0.094,0.387,0.184,0.445,0.205l0,0c0.992-0.031,2.465-0.86,3.811-1.062l0,0
					c0.115-0.021,0.217-0.023,0.303-0.023l0,0c0.734,0.021,1.09,0.293,1.625,0.303l0,0c0.064-0.002,0.113-0.002,0.146-0.002l0,0
					c0.617-0.02,0.789-0.172,0.965-0.453l0,0c0.17-0.293,0.244-0.828,0.24-1.467l0,0c0-0.635-0.057-1.354-0.057-2.061l0,0
					c0.006-0.836,0.07-1.671,0.539-2.354l0,0c0.473-0.628,1.15-0.788,1.354-1.012l0,0c1.367-1.229,1.672-2.491,1.883-3.852l0,0
					c0.201-1.293,0.252-2.687,1.158-3.923l0,0c0.119-2.639,2.684-3.63,2.859-5.379l0,0h0.002c0.043-0.271,0.301-0.456,0.574-0.411
					l0,0c0.27,0.043,0.455,0.302,0.412,0.574l0,0c-0.521,2.466-2.953,3.404-2.85,5.242l0,0c0,0.045,0.002,0.07,0.004,0.09l0,0
					l0.02,0.203l-0.129,0.159c-0.775,0.951-0.855,2.161-1.062,3.592l0,0c-0.205,1.412-0.605,3.032-2.203,4.45l0,0
					c-0.516,0.42-1.062,0.587-1.203,0.84l0,0c-0.26,0.354-0.363,1.009-0.357,1.78l0,0c0,0.651,0.057,1.371,0.057,2.061l0,0
					c-0.004,0.695-0.049,1.369-0.365,1.951l0,0c-0.312,0.597-0.992,0.987-1.84,0.968l0,0c-0.051,0-0.082,0-0.143,0l0,0
					c-0.85-0.047-1.283-0.322-1.629-0.301l0,0c-0.059,0-0.104,0.004-0.15,0.012l0,0c-1.09,0.129-2.578,1.01-3.975,1.074l0,0h-0.039
					l-0.033-0.002c-0.459-0.078-0.662-0.285-0.73-0.277l0,0l-0.1-0.023l-0.078-0.061c-0.518-0.408-0.621-0.943-0.727-1.298l0,0
					c-0.133-0.072-0.268-0.15-0.4-0.236l0,0l-0.057-0.033l-0.039-0.043c-0.879-1.029-1.002-2.272-1.662-2.706l0,0
					c-0.148,0.041-0.295,0.062-0.436,0.062l0,0c-0.785-0.017-1.227-0.562-1.557-0.934l0,0c-0.332-0.416-0.607-0.625-0.652-0.588l0,0
					c-0.035,0-0.146,0.015-0.369,0.223l0,0l-0.125,0.12l-0.174,0.015c-1.635,0.107-3.617,1.548-5.768,1.579l0,0
					c-0.793,0.004-1.613-0.226-2.375-0.797l0,0c-0.207,0.041-0.438,0.079-0.689,0.079l0,0c-0.256,0.002-0.537-0.043-0.805-0.178l0,0
					l-0.098-0.05l-0.068-0.085c-0.766-0.936-1.529-1.208-2.416-1.219l0,0c-1.611-0.02-3.564,1.105-5.422,1.578l0,0
					c-0.18,0.876-0.49,1.686-1.004,2.697l0,0c-0.498,0.964-0.789,2.21-1.307,3.278l0,0c-0.494,1.062-1.396,2.025-2.912,2.006l0,0
					c-0.199,0-0.406-0.016-0.623-0.045l0,0c-0.48,0.41-1.02,0.332-1.238,0.385l0,0c-0.041,0.041-0.041,0.057-0.049,0.254l0,0
					c0,0.061,0,0.115,0,0.166l0,0c0.002,0.225-0.016,0.613-0.361,0.988l0,0c-1.262,1.021-2.615,1.428-3.818,2.182l0,0l-0.094,0.057
					l-0.109,0.016c-0.156,0.018-0.318,0.021-0.451,0.023l0,0l-0.264,0.008l-0.154-0.209c-0.295-0.381-0.576-0.445-1.084-0.461l0,0
					c-0.207,0-0.434,0.02-0.67,0.041l0,0L635,80.914l-0.141-0.082c-0.42-0.24-0.496-0.699-0.508-0.914l0,0
					c-0.002-0.055-0.004-0.102-0.008-0.141l0,0c-0.109,0.029-0.219,0.043-0.326,0.041l0,0c-0.898-0.062-1.314-0.697-1.646-0.73l0,0
					c-0.359-0.1-0.678-0.148-0.951-0.148l0,0c-0.957,0.033-1.496,0.459-1.9,2.035l0,0c0.027,0.172,0.043,0.332,0.043,0.484l0,0
					c0.01,0.5-0.189,0.961-0.545,1.217l0,0c-0.348,0.258-0.752,0.318-1.141,0.32l0,0c-0.779-0.004-1.609-0.27-2.189-0.451l0,0
					c-0.33,0.035-0.637,0.455-1.25,0.891l0,0l-0.18,0.111l-0.201-0.047c-0.881-0.203-1.934-0.34-2.994-0.34l0,0
					c-2.316-0.004-4.586,0.648-5.471,2.332l0,0l-0.092,0.17l-0.182,0.064c-0.574,0.217-0.73,0.576-0.756,1.234l0,0
					c-0.012,0.891,0.514,2.119,0.977,2.754l0,0l0.514,0.713l-0.875,0.074c-0.434,0.037-0.729,0.312-1.129,0.766l0,0
					c-0.389,0.428-0.834,1.016-1.635,1.242l0,0l-0.076,0.02l-0.08-0.004c-0.482-0.023-0.967-0.037-1.449-0.035l0,0
					c-2.174-0.002-4.361,0.199-6.434,0.199l0,0C603.521,92.689,602.686,92.658,601.875,92.557L601.875,92.557z"/>
			</g>
			<g>
				<path d="M575.141,72.71c-0.002-0.059-0.002-0.115,0-0.17l0,0c0-0.277,0.223-0.5,0.498-0.5l0,0c0.275,0,0.5,0.223,0.5,0.5l0,0
					c0,0.055,0,0.111,0,0.17l0,0h0.002c0,0.274-0.227,0.497-0.502,0.497l0,0C575.363,73.207,575.141,72.984,575.141,72.71
					L575.141,72.71z"/>
			</g>
			<g>
				<path d="M688.951,52.186c-0.002-0.115-0.002-0.235,0-0.339l0,0c0-0.276,0.223-0.499,0.5-0.499l0,0
					c0.275,0,0.498,0.223,0.498,0.499l0,0c0,0.104,0,0.224,0,0.339l0,0h0.002c0,0.274-0.225,0.499-0.5,0.499l0,0
					C689.174,52.685,688.951,52.46,688.951,52.186L688.951,52.186z"/>
			</g>
			<g>
				<path d="M689.168,52.261c-0.08,0.005-0.158,0.007-0.236,0.006l0,0c-2.273-0.066-3.73-1.859-5.467-1.798l0,0
					c-0.188,0-0.383,0.02-0.584,0.062l0,0l-0.199,0.041l-0.172-0.105c-0.428-0.269-0.691-0.664-0.857-1.062l0,0
					c-0.768-0.41-2.002-0.381-3.072-1.199l0,0l-0.039-0.032l-0.037-0.045c-0.26-0.326-0.42-0.686-0.533-1.039l0,0l-0.027-0.082
					l0.002-0.085c0-0.032,0.002-0.066,0.002-0.107l0,0c-0.004-2.134-1.734-3.153-3.736-3.184l0,0c-0.33,0-0.664,0.032-0.99,0.097
					l0,0l-0.264,0.05l-0.186-0.189c-0.291-0.295-0.602-0.586-0.904-0.906l0,0c-0.607-0.404-1.264-0.559-2.062-0.561l0,0
					c-0.471,0-0.98,0.056-1.533,0.15l0,0c-0.314,0.053-0.609,0.074-0.889,0.074l0,0c-1.164-0.008-1.994-0.348-2.881-0.338l0,0
					c-0.367,0.002-0.758,0.051-1.211,0.197l0,0c-0.189,0.316-0.387,0.541-0.496,0.758l0,0l-0.082,0.152l-0.156,0.07
					c-0.055,0.023-0.098,0.049-0.166,0.088l0,0l-0.066,0.037l-0.076,0.014c-0.066,0.014-0.117,0.016-0.152,0.016l0,0
					c-0.275-0.009-0.434-0.105-0.574-0.176l0,0l-0.1-0.056l-0.064-0.093c-0.195-0.284-0.34-0.488-0.465-0.572l0,0
					c-0.021,0-0.043-0.001-0.064-0.001l0,0c-0.391-0.002-0.75,0.091-0.984,0.279l0,0c0.127,0.13,0.32,0.366,0.377,0.785l0,0
					l0.004,0.071l-0.018,0.072c-0.018,0.07-0.039,0.156-0.059,0.24l0,0l-0.055,0.223l-0.201,0.103
					c-0.854,0.384-1.439,1.701-2.99,2.014l0,0l-0.359,0.06l-0.166-0.321c-0.268-0.67-1.723-0.921-2.91-1.831l0,0
					c-0.789-0.693-1.365-1.299-1.721-1.246l0,0c-0.201-0.003-0.537,0.115-1.061,0.688l0,0l-0.129,0.141l-0.189,0.02
					c-0.123,0.013-0.244,0.02-0.359,0.02l0,0c-0.961-0.011-1.787-0.33-2.49-0.319l0,0c-0.395,0.002-0.736,0.077-1.117,0.334l0,0
					l-0.176,0.118l-0.205-0.041c-0.432-0.096-0.791-0.253-0.986-0.242l0,0c-0.037,0.002-0.066,0.005-0.092,0.01l0,0
					c-0.084,0.561-0.438,0.998-0.855,1.214l0,0c-0.426,0.229-0.895,0.304-1.334,0.324l0,0c-1.193,0.97-1.217,3.085-2.113,4.15l0,0
					c-0.279,0.296-0.637,0.476-0.996,0.472l0,0c-0.643-0.023-1.006-0.425-1.354-0.69l0,0c-0.344-0.293-0.635-0.473-0.84-0.462l0,0
					c-0.162,0-0.424,0.077-0.887,0.584l0,0c-0.32,0.274-0.719,0.405-1.111,0.405l0,0c-0.494,0.004-1.02-0.217-1.328-0.7l0,0
					l-0.037-0.059l-0.02-0.062c-0.061-0.195-0.09-0.393-0.088-0.587l0,0c0.008-0.771,0.408-1.385,0.768-1.865l0,0
					c0.061-0.137,0.086-0.274,0.086-0.416l0,0c0.002-0.274-0.109-0.585-0.301-0.859l0,0l-0.078-0.115l-0.01-0.138
					c-0.002-0.042-0.002-0.085-0.002-0.128l0,0c0-0.312,0.037-0.598,0.035-0.832l0,0c-0.012-0.324-0.041-0.469-0.203-0.617l0,0
					c-0.41-0.188-0.98-0.18-1.59-0.291l0,0c-0.588-0.071-1.285-0.508-1.482-1.366l0,0c-0.266-0.185-0.463-0.335-0.639-0.378l0,0
					l-0.121-0.033l-0.088-0.082c-0.186-0.184-0.268-0.325-0.312-0.357l0,0l-0.131-0.118l-0.025-0.171
					c-0.223-1.412-0.629-2.822-1.83-3.216l0,0c-0.26-0.093-0.398-0.377-0.307-0.639l0,0c0.092-0.261,0.375-0.398,0.637-0.306l0,0
					c1.779,0.648,2.223,2.453,2.461,3.848l0,0c0.057,0.064,0.1,0.12,0.131,0.16l0,0c0.438,0.167,0.713,0.438,0.945,0.574l0,0
					l0.193,0.119l0.035,0.221c0.15,0.644,0.264,0.626,0.723,0.764l0,0c0.459,0.1,1.17,0.055,1.887,0.398l0,0l0.045,0.02l0.041,0.031
					c0.527,0.396,0.641,1.001,0.631,1.439l0,0c-0.002,0.292-0.031,0.559-0.035,0.775l0,0c0.232,0.379,0.389,0.82,0.391,1.297l0,0
					c0,0.291-0.062,0.595-0.201,0.885l0,0l-0.025,0.049l-0.029,0.038c-0.338,0.434-0.605,0.915-0.6,1.31l0,0
					c0.002,0.073,0.01,0.146,0.027,0.221l0,0c0.098,0.117,0.256,0.185,0.447,0.188l0,0c0.168,0,0.34-0.061,0.41-0.118l0,0
					c0.51-0.578,1.045-0.874,1.588-0.872l0,0c0.676,0.011,1.125,0.407,1.479,0.69l0,0c0.352,0.311,0.645,0.486,0.715,0.463l0,0
					c0.043-0.005,0.107-0.003,0.281-0.172l0,0c0.52-0.381,0.615-3.004,2.354-4.349l0,0l0.127-0.097l0.164-0.002
					c0.398-0.002,0.801-0.072,1.037-0.207l0,0c0.232-0.146,0.338-0.254,0.359-0.635l0,0l0.002-0.217l0.158-0.145
					c0.27-0.254,0.621-0.354,0.908-0.348l0,0c0.41,0.008,0.746,0.139,0.998,0.213l0,0c0.496-0.286,1.014-0.387,1.486-0.385l0,0
					c0.955,0.012,1.783,0.33,2.49,0.32l0,0c0.027,0,0.053-0.002,0.08-0.002l0,0c0.555-0.566,1.092-0.862,1.658-0.864l0,0
					c1.1,0.052,1.654,0.935,2.359,1.474l0,0c0.732,0.67,2.107,0.819,2.924,1.809l0,0c0.703-0.256,1.217-1.074,2.146-1.687l0,0
					c-0.008-0.009-0.016-0.019-0.025-0.03l0,0c-0.074-0.096-0.236-0.232-0.35-0.503l0,0l-0.059-0.146l0.035-0.15
					c0.037-0.156,0.094-0.282,0.156-0.408l0,0l0.033-0.066l0.049-0.053c0.51-0.541,1.209-0.689,1.812-0.689l0,0
					c0.076,0,0.15,0.002,0.219,0.007l0,0l0.08,0.007l0.078,0.029c0.443,0.195,0.674,0.526,0.844,0.778l0,0
					c0.178-0.282,0.354-0.491,0.447-0.69l0,0l0.086-0.18l0.191-0.068c0.637-0.231,1.211-0.317,1.729-0.315l0,0
					c1.129,0.009,1.947,0.347,2.881,0.339l0,0c0.229-0.002,0.465-0.018,0.721-0.062l0,0c0.592-0.101,1.154-0.164,1.701-0.164l0,0
					c0.955-0.003,1.867,0.205,2.676,0.769l0,0l0.047,0.034l0.033,0.034c0.232,0.249,0.48,0.489,0.734,0.741l0,0
					c0.303-0.045,0.609-0.068,0.916-0.068l0,0c2.316,0.004,4.73,1.373,4.734,4.184l0,0c0,0.013,0,0.025,0,0.039l0,0
					c0.082,0.238,0.18,0.439,0.311,0.613l0,0c0.713,0.568,1.924,0.517,3.061,1.171l0,0l0.15,0.092l0.061,0.169
					c0.088,0.254,0.211,0.465,0.371,0.612l0,0c0.193-0.028,0.383-0.042,0.566-0.042l0,0c2.342,0.062,3.824,1.866,5.467,1.8l0,0
					c0.131-0.003,0.258-0.009,0.389-0.026l0,0l0.336-0.049l0.17,0.296c0.021,0.04,0.045,0.081,0.068,0.124l0,0v0.002
					c0.129,0.244,0.035,0.546-0.211,0.675l0,0c-0.074,0.039-0.154,0.058-0.232,0.058l0,0
					C689.35,52.348,689.252,52.318,689.168,52.261L689.168,52.261z"/>
			</g>
			<g>
				<path d="M627.213,36.752c0-0.277,0.223-0.502,0.5-0.502l0,0c0.143,0,0.344,0,0.508,0l0,0v0.002c0.275,0,0.5,0.223,0.5,0.5l0,0
					c0,0.273-0.225,0.498-0.5,0.498l0,0c-0.164,0-0.363,0-0.508,0.002l0,0C627.436,37.252,627.213,37.026,627.213,36.752
					L627.213,36.752z"/>
			</g>
		</g>
		<path fill="none" stroke="#212121" stroke-width="0.5" stroke-dasharray="4" d="M60.321,127.011
			c38.041-30.221,45.637-32.516,78.821-38.809c43.5-8.25,102.479,8.75,138.75,12.75c31.737,3.5,60.379-22.668,78.03-45.776
			l0.508-1.127c1.25-1.745,2.432-3.458,3.541-5.126c19.055-28.641,46.664-47.27,82.936-47.27s76.104,29.345,102.312,25.687
			c22.508-3.142,50.486-13.572,71.686-16.225c34.004-4.254,40.361,36.555,40.361,36.555"/>
		<g>
			<path fill="#EE2329" d="M656.957,50.292c0-0.476,0-0.953,0-0.953c-0.953-0.952-2.383-3.335-4.289-2.382
				c-2.859,1.904,3.812,6.194,4.766,8.1c1.43-1.43,5.242-5.718,4.766-7.623c-0.953-4.766-4.766,2.383-5.719,3.812
				c1.43-1.429,2.857-3.336,4.766-4.288c0,1.43-1.43,4.288-2.859,4.766c-0.477-1.431,1.43-3.813,2.383-4.766
				c-0.477,1.904-2.383,3.811-3.812,4.766c0.477-1.431,1.906-2.861,3.336-4.289c-0.955,1.905-1.906,3.812-3.336,4.765
				c0-0.476-0.477-0.476-0.477-1.431c-0.953,2.384-2.859-1.429-3.336-2.381c0.477,0.475,1.43,0.952,1.43,1.905
				c-1.43,0.476-1.906-1.431-1.906-2.383c1.43,0,3.336,1.907,2.859,3.336c-0.953-0.953-0.953-1.429-1.43-2.384
				c0.953,0.478,1.906,1.431,2.383,2.384c-0.953-0.478-1.906-1.429-1.906-2.384c0.953-0.475,1.906,1.431,1.906,2.384
				c-0.477-0.478-0.953-1.429-0.953-1.906c0.477,0.953,2.859,6.195,3.811,2.859"/>
			<path fill="#EE2329" d="M656.963,50.292c0-0.068,0.141-1.422-0.006-1.578c-0.748-0.796-1.385-1.654-2.301-2.272
				c-1.656-1.117-2.697,0.347-2.697,1.807c0,1.401,0.74,2.362,1.662,3.384c0.713,0.788,1.502,1.508,2.264,2.248
				c0.328,0.319,0.645,0.646,0.953,0.984c0.281,0.31,0.463,0.952,0.795,0.615c2.084-2.114,5.082-5.153,4.605-8.409
				c-0.732-5.004-4.857,2.164-5.758,3.55c-0.172,0.265,0.207,1.039,0,1.25c1.506-1.547,2.852-3.226,4.766-4.288
				c0-0.409,0-0.818-0.002-1.228c-0.074,1.068-0.5,2.015-1.018,2.935c-0.23,0.408-1.723,2.395-1.91,1.463
				c0.002,0.388,0.002,0.776,0.004,1.164c0.027-1.664,1.354-3.197,2.449-4.334c0-0.417,0-0.833,0-1.25
				c-0.637,2.013-2.117,3.565-3.812,4.766c0,0.417,0,0.833,0,1.25c0.709-1.718,2.045-2.994,3.336-4.289c0-0.417,0-0.833,0-1.25
				c-0.727,1.445-1.449,2.871-2.531,4.086c-0.492,0.552-0.621,0.82-0.973,0.245c-0.248-0.407-0.137-1.344-0.486-0.639
				c-0.861,1.736-2.867-2.159-3.158-2.739c0,0.417,0,0.833,0,1.25c0.662,0.585,1.277,0.982,1.43,1.905c0-0.417,0-0.833,0-1.25
				c-1.43,0.266-1.848-1.189-1.904-2.36c0,0.409,0,0.818-0.002,1.228c1.506,0.172,2.812,1.406,2.934,2.937c0-0.417,0-0.834,0-1.25
				c-0.16,0.868-0.51-0.086-0.762-0.43c-0.332-0.451-0.508-1.052-0.742-1.555c0,0.417,0,0.833,0,1.25
				c1.029,0.6,1.783,1.354,2.383,2.384c0-0.417,0-0.833,0-1.25c-0.971-0.568-1.725-1.232-1.906-2.384c0,0.417,0,0.833,0,1.25
				c1.232-0.291,1.812,1.427,1.906,2.384c0-0.417,0-0.833,0-1.25c-0.479-0.569-0.834-1.164-0.953-1.906c0,0.417,0,0.833,0,1.25
				c0.551,1.117,3.184,4.28,3.811,2.859c0.16-0.363-0.125-0.88,0-1.25c-1.041,3.055-3.26-1.742-3.811-2.859
				c0.15,0.306-0.055,0.901,0,1.25c0.119,0.742,0.475,1.337,0.953,1.906c-0.15-0.179,0.025-0.993,0-1.25
				c-0.094-0.957-0.674-2.675-1.906-2.384c-0.049,0.012-0.02,1.127,0,1.25c0.182,1.151,0.936,1.815,1.906,2.384
				c-0.162-0.095,0.115-1.052,0-1.25c-0.6-1.03-1.354-1.784-2.383-2.384c0.15,0.087-0.092,1.053,0,1.25
				c0.184,0.396,0.355,0.796,0.537,1.192c0.174,0.38,0.801,1.697,0.967,0.792c0.045-0.249,0.006-0.54,0.006-0.791
				c-0.006-1.716-1.17-3.194-2.939-3.396c0.014,0.001-0.006,1.11-0.002,1.228c0.057,1.177,0.453,2.676,1.908,2.405
				c0.039-0.007,0.021-1.129,0-1.25c-0.152-0.923-0.768-1.32-1.43-1.905c0.189,0.168-0.127,0.998,0,1.25
				c0.424,0.844,1.963,4.219,3.158,2.739c0.451-0.558,0.16,0.136,0.486,0.639c0.385,0.591,0.422,0.271,0.973-0.245
				c1.148-1.078,1.836-2.703,2.531-4.086c0.135-0.271-0.197-1.053,0-1.25c-1.291,1.295-2.627,2.571-3.336,4.289
				c-0.09,0.22,0.162,1.135,0,1.25c1.695-1.2,3.176-2.753,3.812-4.766c0.084-0.27-0.178-1.066,0-1.25
				c-1.467,1.52-2.664,2.088-2.658,4.21c0,0.144,0.178,1.317,0.205,1.46c0.158,0.787,1.053-0.331,1.348-0.66
				c0.893-0.998,1.49-2.453,1.584-3.782c0.012-0.157-0.094-1.176-0.002-1.228c-1.914,1.062-3.26,2.741-4.766,4.288
				c0,0.417,0,0.833,0,1.25c0.9-1.386,5.025-8.554,5.758-3.55c0-0.409-0.002-0.818-0.002-1.228
				c-0.039,1.595-1.223,3.068-2.135,4.284c-0.543,0.722-1.139,1.405-1.742,2.077c-0.43,0.479-0.742,1.214-1.168,0.594
				c-1.465-2.135-4.832-3.663-5.227-6.425c0,0.389,0.002,0.776,0.004,1.165c0.016-1.247,1.318-1.579,2.324-1.277
				c1.119,0.336,1.906,1.647,2.664,2.453c-0.002-0.208-0.004-0.417-0.006-0.625c0,0.317,0,0.636,0,0.953
				C656.951,50.999,656.963,50.999,656.963,50.292L656.963,50.292z"/>
		</g>
		<g>
			<g>
				<path fill="#EE2329" d="M368.977,37.08c-0.158-0.279-0.316-0.558-0.316-0.558c-0.875-0.24-2.506-1.157-3.301,0.035
					c-1.039,2.067,4.291,2.354,5.484,3.15c0.359-1.312,1.16-5.091,0.248-6.046c-2.146-2.471-1.994,2.98-2.076,4.133
					c0.361-1.312,0.561-2.901,1.359-4.094c0.475,0.836,0.594,2.984-0.086,3.738c-0.754-0.676-0.434-2.705-0.191-3.58
					c0.355,1.274-0.125,3.023-0.645,4.056c-0.197-0.995,0.162-2.307,0.523-3.619c0.076,1.433,0.152,2.866-0.363,3.897
					c-0.16-0.278-0.439-0.119-0.756-0.676c0.236,1.712-2.148,0.117-2.744-0.283c0.438,0.119,1.152,0.08,1.471,0.639
					c-0.678,0.755-1.592-0.201-1.908-0.76c0.836-0.476,2.586,0.006,2.783,1c-0.875-0.24-1.035-0.519-1.629-0.918
					c0.715-0.039,1.59,0.202,2.186,0.6c-0.715,0.04-1.592-0.2-1.908-0.758c0.398-0.596,1.592,0.201,1.908,0.758
					c-0.438-0.118-1.033-0.518-1.193-0.796c0.598,0.398,3.736,2.669,3.184,0.401"/>
				<path fill="#EE2329" d="M368.977,36.455c-0.414-0.73-1.045-0.843-1.854-1.049c-0.775-0.197-1.648,0.009-1.881,0.855
					c-0.141,0.514-0.127,1.48,0.156,1.941c0.568,0.928,2.314,1.175,3.262,1.418c0.607,0.156,1.219,0.3,1.805,0.521
					c0.221,0.084,0.348,0.303,0.424,0.021c0.1-0.373,0.182-0.751,0.26-1.129c0.359-1.709,1.078-5.177-0.535-6.449
					c-1.57-1.238-1.559,3.924-1.6,4.607c-0.021,0.38,0.098,0.863,0.002,1.227c0.213-0.813,0.385-1.637,0.617-2.445
					c0.104-0.352,0.242-0.688,0.389-1.021c0.217-0.495,0.309-0.814,0.533-0.195c0.219,0.6,0.186,1.064-0.021,1.656
					c-0.35,0.993-0.688-0.551-0.635-0.956c0.033-0.259,0.09-0.515,0.146-0.77c0.145-0.649,0.064,0.628,0.059,0.665
					c-0.059,0.355-0.172,0.703-0.281,1.047c-0.037,0.118-0.432,1.291-0.352,0.652c0.055-0.425,0.17-0.846,0.271-1.26
					c0.262-1.064,0.273-0.001,0.244,0.371c-0.039,0.493-0.18,0.953-0.373,1.404c-0.01,0.023-0.74-0.654-0.756-0.676
					c0.145,0.19-0.02,0.969-0.002,1.228c0.006,0.081,0.01,0.163,0.016,0.243c0-0.408,0.002-0.818,0.002-1.227
					c-0.16,1.309-2.236-0.178-2.76-0.527c0,0.416,0,0.834,0,1.25c0.582,0.122,1.074,0.15,1.471,0.639c0-0.416,0-0.834,0-1.25
					c-0.766,0.627-1.477-0.084-1.908-0.76c0,0.417,0,0.834,0,1.25c0.963-0.431,2.43-0.081,2.783,1c0-0.416,0-0.833,0-1.25
					c-0.641-0.206-1.09-0.533-1.629-0.918c0,0.417,0,0.834,0,1.25c0.801,0.008,1.492,0.197,2.186,0.6c0-0.416,0-0.833,0-1.25
					c-0.742,0-1.438-0.143-1.908-0.758c0,0.416,0,0.833,0,1.25c0.623-0.58,1.535,0.23,1.908,0.758c0-0.416,0-0.833,0-1.25
					c-0.469-0.172-0.877-0.402-1.193-0.796c0,0.417,0,0.833,0,1.25c0.791,0.534,1.902,1.493,2.916,1.38
					c0.602-0.066,0.346-1.828,0.268-2.229c0.078,0.4-0.08,0.848,0,1.25c0.039,0.151,0.061,0.305,0.064,0.461c0-0.417,0-0.834,0-1.25
					c-0.123,1.436-2.729-0.512-3.248-0.862c0.191,0.13-0.164,1.046,0,1.25c0.316,0.394,0.725,0.624,1.193,0.796
					c-0.127-0.047,0.109-1.096,0-1.25c-0.373-0.527-1.285-1.338-1.908-0.758c-0.074,0.068-0.068,1.16,0,1.25
					c0.471,0.615,1.166,0.758,1.908,0.758c-0.047,0,0.09-1.197,0-1.25c-0.693-0.402-1.385-0.592-2.186-0.6
					c0.051,0.001-0.092,1.186,0,1.25c0.539,0.385,0.988,0.712,1.629,0.918c-0.084-0.026,0.049-1.102,0-1.25
					c-0.354-1.081-1.82-1.431-2.783-1c-0.049,0.021-0.057,1.162,0,1.25c0.432,0.676,1.143,1.387,1.908,0.76
					c0.068-0.057,0.064-1.169,0-1.25c-0.396-0.488-0.889-0.517-1.471-0.639c0.107,0.022-0.127,1.165,0,1.25
					c0.611,0.408,1.816,1.373,2.586,0.967c0.391-0.207,0.184-1.557,0.16-1.911c-0.002,0.409-0.002,0.818-0.002,1.228
					c0.205,0.271,0.32,0.385,0.615,0.531c0.326,0.163,0.273-0.164,0.383-0.52c0.16-0.514,0.168-1.09,0.178-1.625
					c0.016-0.946-0.006-1.891-0.055-2.836c-0.002-0.008-0.002-0.016-0.002-0.022c-0.322,1.179-0.584,2.315-0.584,3.537
					c0,0.319-0.027,0.675,0.016,0.989c0.096,0.717,0.189,0.034,0.299-0.228c0.182-0.439,0.295-0.903,0.396-1.366
					c0.16-0.732,0.133-1.512,0.119-2.258c-0.006-0.35-0.018-1.625-0.23-0.674c-0.109,0.494-0.166,1.006-0.176,1.512
					c-0.012,0.676-0.033,1.359,0.062,2.028c0.037,0.253,0.139,0.47,0.264,0.688c0.238,0.415,0.412-0.298,0.477-0.485
					c0.152-0.429,0.146-0.921,0.15-1.371c0.008-0.857,0.014-1.701-0.215-2.535c-0.104-0.382-0.096-0.57-0.367-0.125
					c-0.252,0.412-0.404,0.887-0.555,1.342c-0.26,0.798-0.404,1.635-0.617,2.445c0.002,0.41,0.002,0.818,0.002,1.229
					c0.084-1.383-0.029-2.863,0.488-4.176c0.213-0.54,0.619-0.691,1.107-0.387c0.273,0.172,0.51,0.453,0.666,0.732
					c0.098,0.176,0.131,0.394,0.172,0.588c0.139,0.684,0.129-0.795,0.008,0.623c-0.084,0.992-0.287,1.979-0.521,2.943
					c-0.105,0.432-0.109,0.326-0.473,0.17c-0.359-0.154-0.75-0.246-1.127-0.348c-1.068-0.285-4.025-0.613-4.111-2.109
					c0,0.41,0,0.818,0,1.229c0.096-0.852,0.85-1.115,1.611-1.059c0.852,0.064,1.73,0.38,2.139,1.1
					C368.801,37.393,369.158,36.773,368.977,36.455L368.977,36.455z"/>
			</g>
		</g>
		<g>
			<g>
				<path fill="#EE2329" d="M462.086,3.622c0.09-0.309,0.178-0.616,0.178-0.616c-0.441-0.793-0.928-2.599-2.338-2.333
					c-2.203,0.705,1.324,4.713,1.59,6.122c1.189-0.661,4.449-2.733,4.492-4.056c0.262-3.261-3.523,0.663-4.406,1.412
					c1.191-0.66,2.467-1.631,3.877-1.896c-0.264,0.926-1.717,2.513-2.73,2.557c-0.045-1.012,1.631-2.203,2.422-2.644
					c-0.66,1.146-2.246,2.027-3.346,2.379c0.572-0.836,1.76-1.499,2.951-2.158c-0.971,1.057-1.939,2.114-3.039,2.468
					c0.088-0.31-0.223-0.396-0.047-1.014c-1.055,1.367-1.586-1.451-1.717-2.157c0.221,0.396,0.748,0.879,0.572,1.497
					c-1.014,0.045-0.971-1.277-0.793-1.894c0.924,0.263,1.807,1.851,1.232,2.688c-0.439-0.794-0.352-1.103-0.482-1.806
					c0.527,0.482,0.969,1.276,1.1,1.98c-0.527-0.483-0.969-1.277-0.793-1.895c0.703-0.131,0.971,1.277,0.793,1.895
					c-0.221-0.396-0.354-1.101-0.266-1.409c0.135,0.705,0.709,4.536,1.941,2.554"/>
				<path fill="#EE2329" d="M462.086,4.247c0.26-0.901,0.27-1.637-0.121-2.485c-0.332-0.719-0.695-1.442-1.488-1.71
					c-0.621-0.21-1.168,0.258-1.264,0.834c-0.402,2.42,1.387,4.164,2.221,6.25c0.133,0.331,0.09,0.282,0.42,0.09
					c0.291-0.169,0.576-0.351,0.859-0.533c0.764-0.49,1.492-1.034,2.168-1.639c1-0.896,1.152-1.65,1.146-2.907
					c-0.008-1.131-0.428-1.586-1.518-0.999c-1.102,0.593-1.975,1.566-2.908,2.378c-0.18,0.157,0.186,1.145,0,1.25
					c1.262-0.721,2.441-1.561,3.877-1.896c0-0.417,0-0.833,0-1.25c-0.406,1.119-1.506,2.371-2.73,2.557c0,0.417,0,0.833,0,1.25
					c0.098-1.218,1.463-2.086,2.422-2.644c0-0.417,0-0.833,0-1.25c-0.775,1.185-2.031,1.922-3.346,2.379c0,0.417,0,0.833,0,1.25
					c0.766-0.982,1.879-1.563,2.951-2.158c0-0.417,0-0.833,0-1.25c-0.893,0.97-1.783,1.98-3.039,2.468c0,0.409,0,0.818,0.002,1.228
					c0.049-0.67-0.045-1.277-0.104-1.929c0,0.417,0,0.833,0,1.25c0.02-0.104,0.037-0.208,0.055-0.312c0.047-0.263-0.16-1.071,0-1.25
					c-1.107,1.243-1.582-1.436-1.717-2.157c0,0.417,0,0.833,0,1.25c0.246,0.38,0.479,0.701,0.602,1.142c0-0.417,0-0.833,0-1.25
					c-0.047,0.557-0.361,0.381-0.682,0.082c-0.094-0.128-0.158-0.27-0.191-0.426c-0.018,0.327,0,0.345,0.051,0.055
					c0.027-0.112,0.818,0.583,0.857,0.627c0.33,0.364,0.488,0.849,0.555,1.324c0-0.41-0.002-0.819-0.002-1.228
					c-0.025,0.939-0.242,0.665-0.469,0.049c-0.131-0.353-0.135-0.773-0.191-1.141c0,0.417,0,0.833,0,1.25
					c0.557,0.577,0.904,1.204,1.1,1.98c0-0.417,0-0.833,0-1.25c-0.449-0.47-0.738-0.923-0.832-1.573c0,0.417,0,0.833,0,1.25
					c0.076-0.62,0.471-0.225,0.674,0.111c0.148,0.249,0.051,0.771,0.158,0.212c0.027-0.143-0.281-1.028-0.291-1.16
					c0,0.409,0,0.818-0.002,1.228c0.064-0.526,0.129,0.33,0.162,0.5c0.098,0.496,0.223,0.984,0.387,1.461
					c0.303,0.87,0.826,1.231,1.42,0.366c0.197-0.287-0.191-0.972,0-1.25c-1.086,1.582-1.633-0.989-1.807-1.827
					c-0.049-0.241-0.09-0.484-0.135-0.727c0.023,0.122-0.031,0.402-0.031,0.537c-0.004,0.641-0.012,1.232,0.176,1.854
					c0.197,0.65,0.176-0.112,0.178-0.263c0.004-0.235,0.004-0.471,0.002-0.706c0-0.593-0.02-1.146-0.336-1.672
					c-0.506-0.838-0.561,0.384-0.561,0.711c0,0.887,0.191,1.524,0.838,2.198c-0.168-0.176,0.066-0.987,0-1.25
					c-0.195-0.777-0.543-1.404-1.1-1.98c0.152,0.16-0.039,1.002,0,1.25c0.061,0.39,0.381,2.505,0.654,1.334
					c0.086-0.36,0.016-0.839,0.014-1.205c-0.004-0.513-0.131-0.941-0.387-1.393c-0.188-0.333-0.484-0.576-0.801-0.776
					c-0.393-0.248-0.314,0.359-0.33,0.619c-0.047,0.759-0.199,2.045,0.619,2.407c0.438,0.193,0.309-0.842,0.309-1.121
					c-0.002-0.65-0.248-1.048-0.607-1.601c0.166,0.254-0.059,0.935,0,1.25c0.135,0.721,0.609,3.4,1.717,2.157
					c0-0.417,0-0.833,0-1.25c-0.117,0.676-0.125,1.438,0.059,2.099c0-0.409-0.002-0.818-0.002-1.228
					c-0.004,0.055-0.008,0.11-0.012,0.165c-0.01,0.137,0.068,1.202,0.002,1.228c1.256-0.487,2.146-1.498,3.039-2.468
					c0.16-0.175-0.18-1.15,0-1.25c-1.072,0.595-2.186,1.176-2.951,2.158c-0.115,0.146,0.127,1.206,0,1.25
					c1.314-0.457,2.57-1.194,3.346-2.379c0.129-0.195-0.168-1.152,0-1.25c-0.959,0.558-2.324,1.425-2.422,2.644
					c-0.01,0.125,0.023,1.247,0,1.25c1.225-0.186,2.324-1.438,2.73-2.557c0.049-0.137-0.066-1.234,0-1.25
					c-1.436,0.336-2.615,1.175-3.877,1.896c0,0.417,0,0.833,0,1.25c0.994-0.865,1.914-1.843,3.086-2.474
					c0.449-0.243,0.994-0.363,1.25,0.174c0.064,0.287,0.08,0.223,0.049-0.193c-0.025,0.194-0.148,0.38-0.244,0.545
					c-0.215,0.372-0.553,0.682-0.861,0.976c-0.719,0.687-1.564,1.252-2.4,1.788c-0.314,0.203-0.639,0.393-0.965,0.578
					c0.07-0.039-0.285-0.74-0.314-0.799c-0.676-1.377-1.875-2.729-1.994-4.312c0,0.409,0,0.818,0,1.228
					c0.029-0.852,0.746-1.161,1.506-0.905c0.844,0.285,1.186,1.546,1.551,2.249c0-0.417,0-0.833,0-1.25
					c-0.059,0.206-0.117,0.411-0.178,0.616C461.975,3.384,462.195,3.864,462.086,4.247L462.086,4.247z"/>
			</g>
		</g>
		<g>
			<g>
				<path fill="#EE2329" d="M537.99,27.949c0.035-0.318,0.07-0.637,0.07-0.637c-0.566-0.71-1.344-2.411-2.688-1.915
					c-2.059,1.058,2.082,4.428,2.576,5.775c1.062-0.849,3.938-3.431,3.762-4.741c-0.281-3.26-3.367,1.236-4.111,2.119
					c1.062-0.848,2.162-2.016,3.508-2.509c-0.107,0.955-1.277,2.761-2.27,2.97c-0.213-0.99,1.242-2.439,1.951-3.006
					c-0.461,1.239-1.879,2.37-2.908,2.898c0.428-0.918,1.49-1.768,2.557-2.615c-0.783,1.202-1.566,2.405-2.592,2.936
					c0.035-0.32-0.283-0.355-0.211-0.992c-0.816,1.522-1.805-1.17-2.053-1.844c0.285,0.354,0.885,0.743,0.814,1.382
					c-0.994,0.211-1.168-1.101-1.094-1.737c0.953,0.107,2.086,1.527,1.66,2.447c-0.566-0.71-0.531-1.029-0.777-1.702
					c0.602,0.391,1.166,1.101,1.414,1.772c-0.604-0.389-1.168-1.1-1.098-1.738c0.674-0.245,1.168,1.102,1.098,1.738
					c-0.283-0.354-0.531-1.027-0.496-1.347c0.248,0.675,1.447,4.357,2.336,2.198"/>
				<path fill="#EE2329" d="M537.99,28.574c0.107-0.979,0.199-1.675-0.359-2.498c-0.432-0.632-0.893-1.23-1.676-1.389
					c-0.57-0.114-1.133,0.36-1.152,0.918c-0.031,0.844-0.049,1.589,0.35,2.354c0.689,1.322,1.889,2.301,2.664,3.563
					c0.193,0.316,0.143,0.271,0.449,0.017c0.273-0.227,0.537-0.467,0.799-0.706c0.699-0.637,1.352-1.324,1.928-2.073
					c0.682-0.889,0.746-1.631,0.727-2.689c-0.059-3.528-3.377,0.953-4.119,1.855c-0.184,0.223,0.203,1.082,0,1.25
					c1.123-0.921,2.148-1.941,3.508-2.509c0-0.417,0-0.833,0-1.25c-0.131,0.712-0.484,1.319-0.904,1.9
					c-0.184,0.255-1.332,1.471-1.387,0.833c0,0.418,0,0.834,0,1.25c0.148-1.143,1.127-2.067,1.973-2.77c0-0.416,0-0.833,0-1.25
					c-0.568,1.297-1.686,2.231-2.908,2.898c0,0.416,0,0.834,0,1.25c0.596-1.095,1.598-1.852,2.557-2.615c0-0.417,0-0.834,0-1.25
					c-0.527,0.807-1.057,1.599-1.727,2.295c-0.254,0.263-0.553,0.455-0.865,0.641c0.062-0.037-0.199-0.621-0.213-0.676
					c0,0.314,0.002,0.627,0.004,0.941c0.002-0.106,0.002-0.212,0.004-0.318c0-0.192-0.109-0.779-0.006-0.939
					c-0.9,1.396-1.795-1.146-2.053-1.844c0,0.416,0,0.833,0,1.25c0.391,0.43,0.779,0.725,0.812,1.359c0-0.409,0-0.818,0.002-1.228
					c-0.391,0.028-0.584-0.036-0.836-0.337c-0.088-0.141-0.152-0.291-0.191-0.453c-0.109-0.463-0.045-0.342,0.195,0.363
					c0.797,0.182,1.352,1.112,1.486,1.846c0-0.409-0.002-0.818-0.002-1.228c-0.043,1.284-0.744-0.826-0.863-1.184
					c0,0.417,0,0.833,0,1.25c0.643,0.478,1.09,1.04,1.414,1.772c0-0.416,0-0.833,0-1.25c-0.596-0.442-1.061-0.928-1.096-1.715
					c0,0.408,0,0.818-0.002,1.227c0.777-0.093,1.021,0.899,1.1,1.503c0-0.388-0.002-0.776-0.002-1.165
					c-0.174-0.061-0.277-0.189-0.307-0.385c-0.115-0.25-0.178-0.513-0.188-0.789c0,0.409,0,0.818-0.002,1.228
					c0.285,0.79,1.408,4.163,2.336,2.198c0.162-0.344-0.158-0.912,0-1.25c-0.928,1.965-2.051-1.408-2.336-2.198
					c0.117,0.327-0.018,0.874-0.002,1.228c0.025,0.512,0.215,0.945,0.498,1.369c0.002-0.027,0.004-0.057,0.002-0.085
					c0.012-0.814,0.191-3.058-1.1-2.903c-0.033,0.005-0.006,1.111-0.002,1.229c0.037,0.787,0.48,1.3,1.1,1.76
					c-0.172-0.127,0.1-1.022,0-1.25c-0.324-0.732-0.771-1.295-1.414-1.772c0.156,0.116-0.074,1.028,0,1.25
					c0.092,0.278,0.176,0.559,0.268,0.837c0.088,0.268,0.41,1.196,0.588,0.604c0.074-0.244,0.016-0.65,0.016-0.904
					c0-1.16-0.516-2.247-1.754-2.531c-0.002,0.007-0.002,0.014-0.002,0.021c-0.064,0.935-0.297,3.066,1.096,2.966
					c0.023-0.002,0.008-1.112,0.002-1.228c-0.033-0.633-0.406-0.953-0.816-1.404c0.188,0.205-0.104,0.967,0,1.25
					c0.258,0.697,1.152,3.24,2.053,1.844c-0.002-0.314-0.004-0.627-0.006-0.941c-0.004,0.525-0.105,1.145,0.137,1.629
					c0.152,0.305-0.08,0.399,0.381,0.126c0.316-0.188,0.576-0.476,0.828-0.737c0.574-0.595,1.014-1.332,1.463-2.02
					c0.152-0.234-0.197-1.094,0-1.25c-0.959,0.764-1.961,1.521-2.557,2.615c-0.104,0.191,0.152,1.167,0,1.25
					c1.223-0.667,2.34-1.602,2.908-2.898c0.107-0.242-0.178-1.102,0-1.25c-1.189,0.986-1.982,2.007-1.979,3.562
					c0,0.146,0,0.291,0.004,0.437c0.02,0.513,0.477,0.066,0.723-0.111c0.789-0.569,1.396-1.658,1.57-2.601
					c0.029-0.155-0.086-1.214,0-1.25c-1.359,0.567-2.385,1.588-3.508,2.509c0,0.417,0,0.834,0,1.25c0.689-0.839,4-5.338,4.115-1.963
					c0-0.41,0.002-0.818,0.002-1.229c-0.135,0.975-0.896,1.785-1.531,2.485c-0.418,0.462-0.875,0.89-1.336,1.31
					c-0.18,0.164-0.85,0.887-0.957,0.637c-0.719-1.676-3.029-2.844-3.088-4.811c0,0.409,0,0.818,0,1.228
					c0.092-0.735,0.738-0.978,1.412-0.843c0.848,0.172,1.377,1.324,1.844,1.947c0-0.417,0-0.834,0-1.25
					c-0.023,0.212-0.047,0.425-0.07,0.637C537.943,27.737,538.035,28.164,537.99,28.574L537.99,28.574z"/>
			</g>
		</g>
		<g>
			<g>
				<path fill="#EE2329" d="M608.156,12.481c-0.006-0.321-0.012-0.641-0.012-0.641c-0.652-0.63-1.645-2.215-2.914-1.55
					c-1.902,1.317,2.643,4.121,3.307,5.392c0.943-0.98,3.455-3.912,3.111-5.188c-0.701-3.196-3.176,1.661-3.801,2.636
					c0.945-0.979,1.883-2.28,3.152-2.945c0.018,0.962-0.906,2.904-1.865,3.24c-0.336-0.954,0.916-2.581,1.547-3.234
					c-0.299,1.289-1.557,2.595-2.506,3.253c0.303-0.968,1.244-1.947,2.191-2.927c-0.619,1.294-1.238,2.589-2.188,3.246
					c-0.004-0.319-0.326-0.312-0.336-0.953c-0.613,1.615-1.943-0.927-2.275-1.563c0.326,0.313,0.973,0.623,0.984,1.267
					c-0.955,0.337-1.301-0.939-1.311-1.581c0.963-0.019,2.268,1.242,1.965,2.21c-0.654-0.629-0.66-0.951-0.99-1.586
					c0.646,0.31,1.299,0.938,1.631,1.574c-0.646-0.308-1.301-0.939-1.312-1.582c0.635-0.331,1.301,0.94,1.312,1.582
					c-0.326-0.314-0.66-0.95-0.666-1.272c0.334,0.637,2.002,4.134,2.602,1.878"/>
				<path fill="#EE2329" d="M608.16,11.942c-0.014-0.76-0.059-0.757-0.566-1.328c-0.559-0.625-1.164-1.184-2.051-1.069
					c-0.984,0.126-0.781,1.395-0.775,2.066c0.012,1.057,1.033,1.917,1.732,2.592c0.49,0.474,1.002,0.924,1.482,1.409
					c0.176,0.178,0.336,0.369,0.482,0.573c0.156,0.219,0.361-0.185,0.512-0.352c1.512-1.671,3.064-3.585,2.672-5.963
					c-0.514-3.112-3.314,1.857-3.801,2.636c-0.168,0.271,0.205,1.032,0,1.25c0.996-1.059,1.879-2.206,3.152-2.945
					c0-0.409,0-0.818-0.002-1.228c-0.035,0.716-0.311,1.357-0.646,1.98c-0.158,0.292-1.131,1.647-1.268,0.986
					c0,0.388,0.002,0.776,0.002,1.165c0.025-1.103,0.883-2.128,1.596-2.897c0-0.417,0-0.833,0-1.25
					c-0.404,1.362-1.379,2.425-2.506,3.253c0,0.417,0,0.833,0,1.25c0.457-1.164,1.338-2.04,2.191-2.927c0-0.417,0-0.833,0-1.25
					c-0.471,0.981-0.939,1.95-1.654,2.78c-0.324,0.376-0.408,0.559-0.65,0.177c-0.172-0.271-0.107-0.899-0.334-0.421
					c-0.561,1.18-1.957-1.419-2.16-1.807c0,0.417,0,0.833,0,1.25c0.453,0.387,0.871,0.647,0.984,1.267c0-0.417,0-0.833,0-1.25
					c-0.953,0.195-1.258-0.772-1.309-1.559c0,0.409,0,0.818-0.002,1.228c1.016,0.096,1.91,0.912,2.01,1.94c0-0.417,0-0.833,0-1.25
					c-0.096,0.587-0.344-0.051-0.52-0.28c-0.227-0.299-0.354-0.701-0.516-1.036c0,0.417,0,0.833,0,1.25
					c0.699,0.391,1.217,0.888,1.631,1.574c0-0.417,0-0.833,0-1.25c-0.662-0.37-1.176-0.809-1.312-1.582c0,0.417,0,0.833,0,1.25
					c0.826-0.21,1.238,0.94,1.312,1.582c0-0.417,0-0.833,0-1.25c-0.328-0.377-0.576-0.774-0.666-1.272c0,0.417,0,0.833,0,1.25
					c0.385,0.745,1.939,3.946,2.602,1.878c0.123-0.38-0.119-0.875,0-1.25c-0.662,2.068-2.217-1.133-2.602-1.878
					c0.156,0.3-0.061,0.905,0,1.25c0.09,0.499,0.338,0.895,0.666,1.272c-0.15-0.174,0.029-0.995,0-1.25
					c-0.074-0.642-0.486-1.792-1.312-1.582c-0.051,0.013-0.021,1.127,0,1.25c0.137,0.773,0.65,1.212,1.312,1.582
					c-0.16-0.089,0.117-1.058,0-1.25c-0.414-0.686-0.932-1.184-1.631-1.574c0.148,0.083-0.094,1.057,0,1.25
					c0.127,0.264,0.246,0.531,0.373,0.795c0.121,0.253,0.562,1.132,0.662,0.521c0.041-0.252,0.006-0.537,0.006-0.791
					c-0.004-1.209-0.721-2.276-2.016-2.399c0.01,0.001-0.008,1.111-0.002,1.228c0.051,0.792,0.334,1.804,1.312,1.604
					c0.041-0.008,0.023-1.129,0-1.25c-0.113-0.62-0.531-0.88-0.984-1.267c0.191,0.162-0.129,1.002,0,1.25
					c0.295,0.564,1.371,2.817,2.16,1.807c0.297-0.38,0.107,0.087,0.334,0.421c0.266,0.392,0.285,0.177,0.65-0.177
					c0.76-0.739,1.203-1.842,1.654-2.78c0.133-0.276-0.195-1.047,0-1.25c-0.854,0.887-1.734,1.763-2.191,2.927
					c-0.088,0.224,0.162,1.13,0,1.25c1.127-0.828,2.102-1.891,2.506-3.253c0.082-0.274-0.176-1.06,0-1.25
					c-1.123,1.211-1.613,2.317-1.604,3.923c0,0.096-0.016,0.214,0.006,0.31c0.115,0.558,0.691-0.199,0.9-0.439
					c0.59-0.685,0.971-1.673,1.018-2.572c0.008-0.158-0.096-1.173-0.002-1.228c-1.273,0.74-2.156,1.887-3.152,2.945
					c0,0.417,0,0.833,0,1.25c0.59-0.943,3.275-5.82,3.83-2.46c-0.002-0.313-0.004-0.627-0.006-0.94c0,0.064,0,0.128,0,0.192
					c0.002-0.103,0.004-0.207,0.004-0.31c-0.143,1.021-0.793,1.916-1.383,2.731c-0.355,0.493-0.746,0.959-1.145,1.419
					c-0.283,0.328-0.484,0.826-0.777,0.414c-1.014-1.418-3.299-2.405-3.598-4.258c0.002,0.103,0.004,0.207,0.004,0.31
					c0-0.054,0-0.109,0-0.163c-0.002,0.313-0.004,0.627-0.006,0.94c0.371-2.107,3.357,0.092,3.383,1.39
					c0.004,0.231,0.008-0.191,0.008-0.224C608.164,12.512,608.166,12.227,608.16,11.942L608.16,11.942z"/>
			</g>
		</g>
	</g>
</g>
</svg>
